<svg fill="none" height="423" viewBox="0 0 360 423" width="360" xmlns="http://www.w3.org/2000/svg" xmlns:xlink="http://www.w3.org/1999/xlink"><clipPath id="a"><rect height="423" rx="12" width="360"/></clipPath><g clip-path="url(#a)"><rect fill="#fff" height="423" rx="12" width="360"/><path d="m0 0h360v92h-360z" fill="#fff"/><path d="m27.0426 27.9091 3.407 10.304h.1342l3.4006-10.304h2.6079l-4.615 13.0909h-2.9276l-4.6086-13.0909zm14.4636 13.2827c-.9844 0-1.8345-.2046-2.5504-.6137-.7117-.4133-1.2592-.9971-1.6428-1.7514-.3835-.7585-.5753-1.6513-.5753-2.6783 0-1.0099.1918-1.8963.5753-2.6591.3878-.767.929-1.3636 1.6236-1.7897.6946-.4304 1.5107-.6456 2.4482-.6456.6051 0 1.1761.098 1.713.294.5412.1918 1.0185.4901 1.4319.8949.4176.4048.7457.9205.9843 1.5469.2387.6221.358 1.3636.358 2.2244v.7095h-8.0476v-1.5596h5.8295c-.0042-.4432-.1001-.8374-.2876-1.1826-.1875-.3494-.4496-.6243-.7862-.8245-.3324-.2003-.7202-.3005-1.1634-.3005-.473 0-.8885.1151-1.2464.3452-.358.2259-.6371.5242-.8374.8949-.196.3665-.2961.7692-.3004 1.2081v1.3615c0 .571.1044 1.0611.3132 1.4702.2088.4048.5007.7159.8757.9332.375.2131.8139.3196 1.3168.3196.3366 0 .6413-.0469.914-.1406.2728-.098.5093-.2408.7096-.4283.2002-.1875.3515-.4197.4538-.6967l2.1605.2429c-.1364.571-.3963 1.0696-.7798 1.4957-.3793.4219-.8651.75-1.4574.9844-.5923.2301-1.2699.3452-2.0327.3452zm8.6373-5.9446v5.7528h-2.314v-9.8182h2.2117v1.6683h.115c.2259-.5497.586-.9865 1.0803-1.3103.4986-.3239 1.1144-.4858 1.8473-.4858.6776 0 1.2678.1449 1.7706.4346.5071.2898.8992.7096 1.1761 1.2593.2813.5497.4198 1.2166.4155 2.0007v6.2514h-2.3139v-5.8935c0-.6562-.1705-1.1697-.5114-1.5404-.3366-.3708-.8032-.5562-1.3998-.5562-.4048 0-.7649.0895-1.0803.2685-.3111.1747-.5561.4283-.7351.7607-.1747.3323-.262.735-.262 1.2081zm12.2983 5.9254c-.7713 0-1.4617-.1982-2.0711-.5945-.6093-.3963-1.0909-.9716-1.4446-1.7258-.3537-.7543-.5305-1.6705-.5305-2.7486 0-1.0909.179-2.0114.5369-2.7614.3622-.7542.8502-1.3231 1.4638-1.7066.6136-.3878 1.2976-.5817 2.0519-.5817.5752 0 1.0482.098 1.419.294.3707.1918.6648.424.8821.6967.2173.2685.3856.5221.505.7607h.0958v-4.8963h2.3204v13.0909h-2.2756v-1.5469h-.1406c-.1194.2387-.2919.4922-.5178.7607-.2258.2642-.5241.49-.8949.6775-.3707.1875-.8373.2813-1.3998.2813zm.6456-1.8985c.49 0 .9076-.1321 1.2528-.3963.3452-.2684.6072-.6413.7862-1.1186.179-.4772.2685-1.0333.2685-1.6683 0-.6349-.0895-1.1868-.2685-1.6555-.1747-.4688-.4346-.8331-.7798-1.0931-.3409-.2599-.7607-.3899-1.2592-.3899-.5157 0-.9461.1342-1.2912.4027-.3452.2685-.6051.6392-.7799 1.1122-.1747.473-.262 1.0142-.262 1.6236 0 .6136.0873 1.1612.262 1.6428.179.4772.4411.8544.7863 1.1314.3494.2727.7777.409 1.2848.409zm11.3315 1.9177c-.9589 0-1.7898-.211-2.4929-.6329-.7032-.4218-1.2486-1.012-1.6364-1.7705-.3835-.7586-.5753-1.6449-.5753-2.6591s.1918-1.9027.5753-2.6655c.3878-.7628.9332-1.3551 1.6364-1.777.7031-.4219 1.534-.6328 2.4929-.6328.9588 0 1.7897.2109 2.4929.6328.7031.4219 1.2464 1.0142 1.6299 1.777.3878.7628.5817 1.6513.5817 2.6655s-.1939 1.9005-.5817 2.6591c-.3835.7585-.9268 1.3487-1.6299 1.7705-.7032.4219-1.5341.6329-2.4929.6329zm.0127-1.8537c.5199 0 .9546-.1428 1.304-.4283.3494-.2898.6094-.6776.7798-1.1634.1748-.4857.2621-1.0269.2621-1.6235 0-.6009-.0873-1.1442-.2621-1.63-.1704-.4901-.4304-.88-.7798-1.1697-.3494-.2898-.7841-.4347-1.304-.4347-.5326 0-.9758.1449-1.3295.4347-.3494.2897-.6115.6796-.7862 1.1697-.1705.4858-.2557 1.0291-.2557 1.63 0 .5966.0852 1.1378.2557 1.6235.1747.4858.4368.8736.7862 1.1634.3537.2855.7969.4283 1.3295.4283zm6.6558 1.6619v-9.8182h2.2436v1.6364h.1022c.179-.5668.4858-1.0036.9205-1.3104.4389-.3111.9396-.4666 1.5021-.4666.1279 0 .2706.0064.4283.0192.1619.0085.2962.0234.4027.0447v2.1286c-.098-.0341-.2536-.064-.4666-.0895-.2088-.0299-.4113-.0448-.6073-.0448-.4218 0-.8011.0917-1.1378.2749-.3323.179-.5944.4283-.7862.7479-.1917.3196-.2876.6882-.2876 1.1058v5.772zm14.8966-7.223-2.1094.2301c-.0596-.2131-.164-.4133-.3132-.6009-.1449-.1874-.3409-.3387-.588-.4538-.2472-.115-.5497-.1726-.9077-.1726-.4815 0-.8864.1044-1.2145.3132-.3239.2088-.4837.4794-.4794.8118-.0043.2855.1001.5178.3132.6968.2173.1789.5753.326 1.0739.441l1.6747.358c.929.2003 1.6193.5177 2.071.9524.456.4346.6861 1.0035.6904 1.7067-.0043.6179-.1854 1.1633-.5434 1.6363-.3537.4688-.8458.8352-1.4765 1.0995-.6307.2642-1.3551.3963-2.1733.3963-1.2017 0-2.1691-.2515-2.902-.7543-.733-.5071-1.1698-1.2124-1.3104-2.1158l2.2564-.2173c.1023.4432.3196.7777.652 1.0036.3324.2258.7649.3387 1.2976.3387.5497 0 .9908-.1129 1.3231-.3387.3367-.2259.505-.505.505-.8374 0-.2813-.1087-.5135-.326-.6967-.2131-.1833-.5454-.3239-.9971-.4219l-1.6748-.3516c-.9417-.196-1.6385-.5263-2.0902-.9907-.4517-.4688-.6754-1.0611-.6711-1.777-.0043-.6051.1598-1.1293.4922-1.5725.3366-.4474.8032-.7926 1.3998-1.0355.6009-.2471 1.2933-.3707 2.0774-.3707 1.1506 0 2.0561.245 2.7167.7351.6647.49 1.0759 1.1527 1.2336 1.9879zm6.584 7.223v-9.8182h2.211v1.6683h.116c.204-.5625.543-1.0014 1.016-1.3167.473-.3196 1.038-.4794 1.694-.4794.665 0 1.225.1619 1.681.4858.46.3196.784.7564.971 1.3103h.103c.217-.5454.584-.9801 1.099-1.3039.52-.3282 1.136-.4922 1.847-.4922.904 0 1.641.2855 2.212.8565s.857 1.4041.857 2.4993v6.5902h-2.321v-6.2322c0-.6094-.162-1.0547-.485-1.336-.324-.2855-.721-.4282-1.189-.4282-.559 0-.995.1747-1.311.5241-.311.3452-.466.7947-.466 1.3487v6.1236h-2.27v-6.3281c0-.5071-.153-.912-.46-1.2145-.302-.3026-.699-.4538-1.189-.4538-.332 0-.635.0852-.907.2556-.273.1662-.49.4027-.652.7096-.162.3025-.243.6562-.243 1.061v5.9702zm20.437.1918c-.959 0-1.79-.211-2.493-.6329-.703-.4218-1.249-1.012-1.636-1.7705-.384-.7586-.576-1.6449-.576-2.6591s.192-1.9027.576-2.6655c.387-.7628.933-1.3551 1.636-1.777s1.534-.6328 2.493-.6328 1.79.2109 2.493.6328 1.246 1.0142 1.63 1.777c.387.7628.581 1.6513.581 2.6655s-.194 1.9005-.581 2.6591c-.384.7585-.927 1.3487-1.63 1.7705-.703.4219-1.534.6329-2.493.6329zm.013-1.8537c.519 0 .954-.1428 1.304-.4283.349-.2898.609-.6776.779-1.1634.175-.4857.262-1.0269.262-1.6235 0-.6009-.087-1.1442-.262-1.63-.17-.4901-.43-.88-.779-1.1697-.35-.2898-.785-.4347-1.304-.4347-.533 0-.976.1449-1.33.4347-.349.2897-.611.6796-.786 1.1697-.171.4858-.256 1.0291-.256 1.63 0 .5966.085 1.1378.256 1.6235.175.4858.437.8736.786 1.1634.354.2855.797.4283 1.33.4283zm8.969-4.0909v5.7528h-2.314v-9.8182h2.212v1.6683h.115c.226-.5497.586-.9865 1.08-1.3103.499-.3239 1.115-.4858 1.848-.4858.677 0 1.267.1449 1.77.4346.507.2898.899.7096 1.176 1.2593.282.5497.42 1.2166.416 2.0007v6.2514h-2.314v-5.8935c0-.6562-.171-1.1697-.512-1.5404-.336-.3708-.803-.5562-1.399-.5562-.405 0-.765.0895-1.081.2685-.311.1747-.556.4283-.735.7607-.174.3323-.262.735-.262 1.2081zm8.655 5.7528v-9.8182h2.314v9.8182zm1.163-11.2116c-.366 0-.681-.1215-.946-.3644-.264-.2472-.396-.5433-.396-.8885 0-.3494.132-.6456.396-.8885.265-.2471.58-.3707.946-.3707.371 0 .686.1236.946.3707.265.2429.397.5391.397.8885 0 .3452-.132.6413-.397.8885-.26.2429-.575.3644-.946.3644zm8.433 1.3934v1.7898h-5.644v-1.7898zm-4.251-2.3523h2.314v9.2174c0 .3111.047.5497.141.7159.098.1619.226.2727.383.3324.158.0596.333.0895.525.0895.144 0 .277-.0107.396-.032.123-.0213.217-.0405.281-.0575l.39 1.8089c-.123.0426-.3.0895-.53.1406-.226.0512-.503.081-.831.0895-.58.0171-1.102-.0703-1.566-.262-.465-.1961-.834-.4986-1.106-.9077-.269-.4091-.401-.9205-.397-1.5341zm10.363 12.3623c-.958 0-1.789-.211-2.492-.6329-.704-.4218-1.249-1.012-1.637-1.7705-.383-.7586-.575-1.6449-.575-2.6591s.192-1.9027.575-2.6655c.388-.7628.933-1.3551 1.637-1.777.703-.4219 1.534-.6328 2.492-.6328.959 0 1.79.2109 2.493.6328.704.4219 1.247 1.0142 1.63 1.777.388.7628.582 1.6513.582 2.6655s-.194 1.9005-.582 2.6591c-.383.7585-.926 1.3487-1.63 1.7705-.703.4219-1.534.6329-2.493.6329zm.013-1.8537c.52 0 .955-.1428 1.304-.4283.35-.2898.61-.6776.78-1.1634.175-.4857.262-1.0269.262-1.6235 0-.6009-.087-1.1442-.262-1.63-.17-.4901-.43-.88-.78-1.1697-.349-.2898-.784-.4347-1.304-.4347-.532 0-.976.1449-1.329.4347-.35.2897-.612.6796-.786 1.1697-.171.4858-.256 1.0291-.256 1.63 0 .5966.085 1.1378.256 1.6235.174.4858.436.8736.786 1.1634.353.2855.797.4283 1.329.4283zm6.656 1.6619v-9.8182h2.244v1.6364h.102c.179-.5668.486-1.0036.92-1.3104.439-.3111.94-.4666 1.502-.4666.128 0 .271.0064.429.0192.162.0085.296.0234.402.0447v2.1286c-.098-.0341-.253-.064-.466-.0895-.209-.0299-.411-.0448-.607-.0448-.422 0-.802.0917-1.138.2749-.333.179-.595.4283-.786.7479-.192.3196-.288.6882-.288 1.1058v5.772zm11.079.1918c-.984 0-1.835-.2046-2.55-.6137-.712-.4133-1.26-.9971-1.643-1.7514-.384-.7585-.575-1.6513-.575-2.6783 0-1.0099.191-1.8963.575-2.6591.388-.767.929-1.3636 1.623-1.7897.695-.4304 1.511-.6456 2.449-.6456.605 0 1.176.098 1.713.294.541.1918 1.018.4901 1.431.8949.418.4048.746.9205.985 1.5469.238.6221.358 1.3636.358 2.2244v.7095h-8.048v-1.5596h5.83c-.005-.4432-.1-.8374-.288-1.1826-.187-.3494-.449-.6243-.786-.8245-.333-.2003-.72-.3005-1.163-.3005-.473 0-.889.1151-1.247.3452-.358.2259-.637.5242-.837.8949-.196.3665-.296.7692-.301 1.2081v1.3615c0 .571.105 1.0611.314 1.4702.208.4048.5.7159.875.9332.375.2131.814.3196 1.317.3196.337 0 .641-.0469.914-.1406.273-.098.509-.2408.71-.4283.2-.1875.351-.4197.453-.6967l2.161.2429c-.136.571-.396 1.0696-.78 1.4957-.379.4219-.865.75-1.457.9844-.593.2301-1.27.3452-2.033.3452zm9.967-.0192c-.771 0-1.462-.1982-2.071-.5945-.61-.3963-1.091-.9716-1.445-1.7258-.354-.7543-.53-1.6705-.53-2.7486 0-1.0909.179-2.0114.537-2.7614.362-.7542.85-1.3231 1.463-1.7066.614-.3878 1.298-.5817 2.052-.5817.575 0 1.048.098 1.419.294.371.1918.665.424.882.6967.218.2685.386.5221.505.7607h.096v-4.8963h2.321v13.0909h-2.276v-1.5469h-.141c-.119.2387-.292.4922-.517.7607-.226.2642-.525.49-.895.6775-.371.1875-.838.2813-1.4.2813zm.645-1.8985c.49 0 .908-.1321 1.253-.3963.345-.2684.607-.6413.786-1.1186.179-.4772.269-1.0333.269-1.6683 0-.6349-.09-1.1868-.269-1.6555-.174-.4688-.434-.8331-.779-1.0931-.341-.2599-.761-.3899-1.26-.3899-.515 0-.946.1342-1.291.4027s-.605.6392-.78 1.1122c-.174.473-.262 1.0142-.262 1.6236 0 .6136.088 1.1612.262 1.6428.179.4772.441.8544.787 1.1314.349.2727.777.409 1.284.409z" fill="#101828"/><path d="m24.358 56.8182h1.4119l2.8239 4.7528h.1193l2.8238-4.7528h1.412l-3.679 5.9858v4.196h-1.233v-4.196zm12.0486 10.3409c-.6894 0-1.2943-.1641-1.8146-.4922-.5171-.3281-.9214-.7872-1.2131-1.3771-.2883-.59-.4325-1.2794-.4325-2.0682 0-.7955.1442-1.4898.4325-2.0831.2917-.5933.696-1.054 1.2131-1.3821.5203-.3281 1.1252-.4922 1.8146-.4922s1.2926.1641 1.8097.4922c.5203.3281.9247.7888 1.213 1.3821.2917.5933.4375 1.2876.4375 2.0831 0 .7888-.1458 1.4782-.4375 2.0682-.2883.5899-.6927 1.049-1.213 1.3771-.5171.3281-1.1203.4922-1.8097.4922zm0-1.054c.5237 0 .9546-.1342 1.2926-.4027.3381-.2685.5883-.6214.7507-1.0589s.2436-.9115.2436-1.4219-.0812-.986-.2436-1.4269c-.1624-.4408-.4126-.7971-.7507-1.0688-.338-.2718-.7689-.4077-1.2926-.4077s-.9545.1359-1.2926.4077c-.3381.2717-.5883.628-.7507 1.0688-.1624.4409-.2436.9165-.2436 1.4269s.0812.9844.2436 1.4219.4126.7904.7507 1.0589.7689.4027 1.2926.4027zm10.0637-2.2273v-4.5142h1.1733v7.6364h-1.1733v-1.2926h-.0795c-.179.3878-.4574.7176-.8352.9893-.3779.2685-.8551.4027-1.4318.4027-.4773 0-.9016-.1044-1.2728-.3132-.3712-.2121-.6628-.5303-.875-.9545-.2121-.4276-.3182-.9662-.3182-1.6158v-4.8523h1.1733v4.7728c0 .5568.1558 1.0009.4674 1.3324.3148.3314.7159.4971 1.2031.4971.2917 0 .5883-.0746.8899-.2237.3049-.1492.5601-.3779.7656-.6861.2088-.3082.3132-.701.3132-1.1783zm4.5615-7.0596v.8949c0 .2717-.0497.5618-.1492.87-.0961.3049-.2386.6016-.4275.8899-.1856.285-.411.5336-.6762.7458l-.6363-.5171c.2088-.2983.3894-.6082.5419-.9297.1558-.3248.2336-.6711.2336-1.039v-.9148zm1.2491 10.1818v-7.6364h1.1335v1.1534h.0796c.1392-.3778.3911-.6844.7556-.9197.3646-.2353.7756-.353 1.233-.353.0862 0 .1939.0017.3232.005.1292.0033.227.0083.2933.0149v1.1932c-.0398-.01-.1309-.0249-.2735-.0448-.1392-.0232-.2867-.0348-.4424-.0348-.3712 0-.7027.0779-.9944.2337-.2883.1525-.517.3646-.686.6364-.1657.2684-.2486.575-.2486.9197v4.8324zm8.1783.1591c-.7358 0-1.3705-.1624-1.9042-.4872-.5303-.3281-.9396-.7855-1.2279-1.3722-.2851-.5899-.4276-1.276-.4276-2.0582s.1425-1.4716.4276-2.0682c.2883-.5999.6894-1.0672 1.2031-1.402.517-.3381 1.1202-.5071 1.8096-.5071.3978 0 .7905.0663 1.1783.1989.3878.1325.7408.348 1.059.6463.3181.295.5717.6861.7606 1.1733s.2834 1.0871.2834 1.7997v.4971h-5.8864v-1.0142h4.6932c0-.4308-.0862-.8153-.2585-1.1534-.169-.338-.411-.6048-.7259-.8004-.3115-.1955-.6794-.2933-1.1037-.2933-.4673 0-.8716.116-1.213.348-.3381.2287-.5983.527-.7806.8949s-.2734.7623-.2734 1.1832v.6762c0 .5767.0994 1.0655.2983 1.4666.2022.3977.4822.701.8402.9098.3579.2055.7739.3082 1.2479.3082.3082 0 .5866-.0431.8352-.1292.2519-.0895.469-.2221.6513-.3978.1823-.179.3231-.401.4226-.6662l1.1335.3182c-.1193.3845-.3199.7226-.6016 1.0142-.2817.2884-.6297.5137-1.044.6762-.4143.159-.88.2386-1.397.2386zm13.6967-3.2813v-4.5142h1.1733v7.6364h-1.1733v-1.2926h-.0796c-.1789.3878-.4573.7176-.8352.9893-.3778.2685-.8551.4027-1.4318.4027-.4773 0-.9015-.1044-1.2727-.3132-.3712-.2121-.6629-.5303-.875-.9545-.2121-.4276-.3182-.9662-.3182-1.6158v-4.8523h1.1733v4.7728c0 .5568.1558 1.0009.4673 1.3324.3149.3314.7159.4971 1.2031.4971.2917 0 .5884-.0746.89-.2237.3049-.1492.5601-.3779.7656-.6861.2088-.3082.3132-.701.3132-1.1783zm8.7314-2.8039-1.054.2983c-.0663-.1757-.1641-.3464-.2933-.5121-.126-.169-.2983-.3083-.5171-.4176-.2187-.1094-.4988-.1641-.8402-.1641-.4673 0-.8568.1077-1.1683.3232-.3083.2121-.4624.4822-.4624.8103 0 .2917.1061.522.3182.6911.2121.169.5436.3099.9943.4226l1.1335.2784c.6828.1657 1.1916.4192 1.5263.7606.3348.3381.5022.7739.5022 1.3076 0 .4375-.126.8286-.3779 1.1733-.2486.3447-.5966.6164-1.044.8153-.4475.1989-.9678.2983-1.5611.2983-.7789 0-1.4235-.169-1.9339-.5071-.5105-.3381-.8336-.8319-.9695-1.4815l1.1136-.2785c.1061.411.3066.7193.6016.9248.2983.2055.6877.3082 1.1683.3082.5469 0 .9811-.116 1.3026-.348.3248-.2353.4872-.5171.4872-.8452 0-.2651-.0928-.4872-.2784-.6662-.1856-.1823-.4707-.3182-.8551-.4076l-1.2728-.2983c-.6993-.1658-1.213-.4226-1.5412-.7706-.3248-.3514-.4872-.7905-.4872-1.3175 0-.4309.121-.812.363-1.1435.2452-.3314.5783-.5916.9992-.7805.4243-.1889.9049-.2834 1.4418-.2834.7557 0 1.349.1657 1.7798.4972.4342.3314.7425.7689.9248 1.3125zm1.9053 5.9261v-7.6364h1.1733v7.6364zm.5966-8.9091c-.2287 0-.4259-.0779-.5916-.2337-.1624-.1557-.2436-.343-.2436-.5617 0-.2188.0812-.4061.2436-.5618.1657-.1558.3629-.2337.5916-.2337s.4242.0779.5867.2337c.1657.1557.2485.343.2485.5618 0 .2187-.0828.406-.2485.5617-.1625.1558-.358.2337-.5867.2337zm3.899 4.3153v4.5938h-1.1733v-7.6364h1.1335v1.1932h.0994c.179-.3878.4508-.6993.8154-.9346.3646-.2387.8352-.358 1.4119-.358.5171 0 .9695.1061 1.3573.3182.3877.2088.6893.527.9048.9545.2154.4243.3231.9612.3231 1.6108v4.8523h-1.1733v-4.7727c0-.5999-.1557-1.0673-.4673-1.402-.3115-.3381-.7391-.5071-1.2827-.5071-.3745 0-.7092.0812-1.0042.2436-.2917.1624-.522.3994-.6911.7109-.169.3116-.2535.6894-.2535 1.1335zm10.0985 7.6165c-.5667 0-1.054-.0729-1.4616-.2187-.4077-.1425-.7474-.3315-1.0192-.5668-.2685-.232-.4822-.4806-.6413-.7457l.9346-.6563c.1061.1392.2403.2983.4027.4773.1624.1823.3845.3397.6662.4723.285.1359.6579.2038 1.1186.2038.6163 0 1.1253-.1491 1.5263-.4474s.602-.7656.602-1.402v-1.5511h-.1c-.086.1392-.209.3115-.368.517-.156.2022-.381.3828-.676.5419-.292.1558-.686.2337-1.1831.2337-.6165 0-1.17-.1459-1.6606-.4375-.4872-.2917-.8733-.7159-1.1583-1.2727-.2818-.5569-.4226-1.233-.4226-2.0285 0-.7822.1375-1.4633.4126-2.0433.2751-.5833.6579-1.0341 1.1485-1.3523.4905-.3214 1.0572-.4822 1.7002-.4822.4972 0 .8913.0829 1.1833.2486.295.1624.52.348.676.5568.159.2055.282.3745.368.5071h.119v-1.2131h1.134v7.8552c0 .6562-.149 1.1898-.448 1.6008-.295.4143-.692.7176-1.193.9098-.497.1956-1.0504.2933-1.6603.2933zm-.0398-4.196c.4707 0 .8681-.1077 1.1931-.3231.325-.2155.572-.5254.741-.9297.169-.4044.253-.8883.253-1.4517 0-.5502-.082-1.0358-.248-1.4567s-.411-.7507-.736-.9894c-.325-.2386-.7258-.3579-1.2031-.3579-.4971 0-.9114.1259-1.2429.3778-.3281.2519-.575.59-.7407 1.0142-.1624.4243-.2436.8949-.2436 1.412 0 .5303.0828.9992.2486 1.4069.169.4044.4176.7226.7457.9546.3314.2287.7424.343 1.2329.343zm12.6681 1.3125c-.683 0-1.286-.121-1.81-.3629-.52-.2453-.926-.5817-1.218-1.0093-.292-.4308-.436-.9214-.433-1.4715-.003-.4309.082-.8286.254-1.1932.172-.3679.408-.6745.706-.9198.301-.2486.638-.406 1.009-.4723v-.0596c-.487-.126-.875-.3994-1.163-.8203-.289-.4243-.431-.9065-.428-1.4468-.003-.517.128-.9794.393-1.3871.265-.4076.63-.7291 1.094-.9644.467-.2354.999-.353 1.596-.353.59 0 1.117.1176 1.581.353.464.2353.828.5568 1.093.9644.269.4077.405.8701.408 1.3871-.003.5403-.151 1.0225-.443 1.4468-.288.4209-.671.6943-1.148.8203v.0596c.368.0663.699.2237.994.4723.295.2453.531.5519.706.9198.176.3646.265.7623.269 1.1932-.004.5501-.153 1.0407-.448 1.4715-.291.4276-.697.764-1.218 1.0093-.517.2419-1.115.3629-1.794.3629zm0-1.0937c.46 0 .858-.0746 1.193-.2238.334-.1491.593-.3596.775-.6314.183-.2717.275-.5899.279-.9545-.004-.3845-.103-.7242-.299-1.0192-.195-.295-.462-.527-.8-.696-.335-.169-.718-.2536-1.148-.2536-.435 0-.822.0846-1.164.2536-.338.169-.605.401-.8.696-.192.295-.287.6347-.284 1.0192-.003.3646.085.6828.264.9545.182.2718.442.4823.78.6314.339.1492.74.2238 1.204.2238zm0-4.8324c.364 0 .687-.0729.969-.2188.285-.1458.509-.3497.671-.6115.163-.2618.245-.5684.249-.9197-.004-.3447-.085-.6447-.244-.8999-.159-.2585-.379-.4574-.661-.5966-.282-.1425-.61-.2138-.984-.2138-.382 0-.715.0713-1 .2138-.285.1392-.505.3381-.661.5966-.156.2552-.232.5552-.229.8999-.003.3513.075.6579.234.9197.162.2618.386.4657.671.6115.285.1459.613.2188.985.2188zm8.686 5.9261c-.749 0-1.387-.2038-1.914-.6115-.527-.411-.93-1.0059-1.208-1.7848-.278-.7822-.418-1.7268-.418-2.8338 0-1.1004.14-2.04.418-2.8189.282-.7822.686-1.3788 1.213-1.7898.53-.4143 1.167-.6214 1.909-.6214.743 0 1.377.2071 1.904.6214.531.411.935 1.0076 1.213 1.7898.282.7789.423 1.7185.423 2.8189 0 1.107-.139 2.0516-.418 2.8338-.278.7789-.681 1.3738-1.208 1.7848-.527.4077-1.165.6115-1.914.6115zm0-1.0937c.743 0 1.319-.358 1.73-1.0739s.617-1.7368.617-3.0625c0-.8816-.095-1.6323-.284-2.2521-.185-.6198-.454-1.0921-.805-1.4169-.348-.3249-.767-.4873-1.258-.4873-.736 0-1.311.363-1.725 1.0888-.414.7226-.621 1.745-.621 3.0675 0 .8816.092 1.6307.278 2.2471.186.6165.452 1.0855.8 1.407.352.3215.774.4823 1.268.4823zm10.619-.9546v-.5369c0-.3712.077-.711.229-1.0192.156-.3116.381-.5601.676-.7457.299-.189.66-.2834 1.084-.2834.431 0 .792.0944 1.084.2834.292.1856.512.4341.661.7457.149.3082.224.648.224 1.0192v.5369c0 .3712-.076.7126-.229 1.0242-.149.3082-.371.5568-.666.7457-.292.1856-.65.2784-1.074.2784-.431 0-.794-.0928-1.089-.2784-.295-.1889-.518-.4375-.671-.7457-.152-.3116-.229-.653-.229-1.0242zm1.015-.5369v.5369c0 .3082.073.585.218.8303.146.2419.398.3629.756.3629.348 0 .593-.121.736-.3629.146-.2453.219-.5221.219-.8303v-.5369c0-.3083-.07-.5834-.209-.8253-.139-.2453-.388-.3679-.746-.3679-.348 0-.598.1226-.751.3679-.149.2419-.223.517-.223.8253zm-6.086-5.2898v-.5369c0-.3712.077-.711.229-1.0192.156-.3116.381-.5601.676-.7457.299-.189.66-.2834 1.084-.2834.431 0 .792.0944 1.084.2834.292.1856.512.4341.661.7457.149.3082.224.648.224 1.0192v.5369c0 .3712-.076.7126-.229 1.0242-.149.3082-.371.5568-.666.7457-.292.1856-.65.2784-1.074.2784-.431 0-.794-.0928-1.089-.2784-.295-.1889-.518-.4375-.671-.7457-.152-.3116-.229-.653-.229-1.0242zm1.015-.5369v.5369c0 .3082.073.585.218.8303.146.2419.398.3629.756.3629.348 0 .593-.121.736-.3629.146-.2453.219-.5221.219-.8303v-.5369c0-.3083-.07-.5834-.209-.8253-.139-.2453-.388-.3679-.746-.3679-.348 0-.598.1226-.751.3679-.149.2419-.223.517-.223.8253zm-.637 8.2727 7-10.1818h1.134l-7 10.1818zm17.938.1591c-.69 0-1.294-.1641-1.815-.4922-.517-.3281-.921-.7872-1.213-1.3771-.288-.59-.432-1.2794-.432-2.0682 0-.7955.144-1.4898.432-2.0831.292-.5933.696-1.054 1.213-1.3821.521-.3281 1.125-.4922 1.815-.4922.689 0 1.292.1641 1.809.4922.521.3281.925.7888 1.214 1.3821.291.5933.437 1.2876.437 2.0831 0 .7888-.146 1.4782-.437 2.0682-.289.5899-.693 1.049-1.214 1.3771-.517.3281-1.12.4922-1.809.4922zm0-1.054c.523 0 .954-.1342 1.292-.4027s.589-.6214.751-1.0589c.163-.4375.244-.9115.244-1.4219s-.081-.986-.244-1.4269c-.162-.4408-.413-.7971-.751-1.0688-.338-.2718-.769-.4077-1.292-.4077-.524 0-.955.1359-1.293.4077-.338.2717-.588.628-.751 1.0688-.162.4409-.243.9165-.243 1.4269s.081.9844.243 1.4219c.163.4375.413.7904.751 1.0589s.769.4027 1.293.4027zm8.652-6.7415v.9944h-4.117v-.9944zm-2.884 7.6364v-8.6903c0-.4375.103-.8021.308-1.0938.206-.2917.473-.5104.801-.6562.328-.1459.674-.2188 1.039-.2188.288 0 .523.0232.706.0696.182.0464.318.0895.407.1293l-.338 1.0142c-.059-.0199-.142-.0448-.248-.0746-.103-.0298-.239-.0447-.408-.0447-.388 0-.668.0977-.84.2933-.169.1955-.254.4822-.254.8601v8.4119zm10.713.179c-.484 0-.923-.0912-1.318-.2735-.394-.1856-.707-.4524-.939-.8004-.232-.3513-.348-.7756-.348-1.2727 0-.4375.086-.7922.258-1.0639.172-.2751.403-.4906.691-.6463.288-.1558.607-.2718.955-.3481.351-.0795.704-.1425 1.059-.1889.464-.0596.84-.1044 1.128-.1342.292-.0331.504-.0878.637-.1641.135-.0762.203-.2088.203-.3977v-.0398c0-.4905-.134-.8717-.402-1.1434-.266-.2718-.668-.4077-1.208-.4077-.561 0-1 .1226-1.318.3679s-.542.5071-.671.7855l-1.114-.3977c.199-.464.464-.8253.796-1.0838.334-.2619.699-.4442 1.093-.5469.398-.1061.789-.1591 1.174-.1591.245 0 .527.0298.845.0895.321.0563.631.174.93.353.301.179.551.4491.75.8103.199.3613.299.8452.299 1.4518v5.0312h-1.174v-1.0341h-.059c-.08.1657-.212.343-.398.532-.186.1889-.433.3496-.741.4822s-.684.1989-1.128.1989zm.179-1.054c.464 0 .855-.0911 1.173-.2734.321-.1823.563-.4177.726-.706.165-.2884.248-.5916.248-.9098v-1.0739c-.049.0597-.159.1144-.328.1641-.166.0464-.358.0878-.576.1243-.216.0331-.426.063-.632.0895-.202.0232-.366.0431-.492.0596-.305.0398-.59.1044-.855.1939-.262.0862-.474.2171-.637.3928-.159.1723-.238.4076-.238.7059 0 .4077.151.716.452.9248.305.2055.691.3082 1.159.3082zm11.433-6.7614-2.824 7.6364h-1.193l-2.824-7.6364h1.273l2.108 6.0853h.079l2.108-6.0853zm3.563 7.8154c-.483 0-.923-.0912-1.317-.2735-.394-.1856-.708-.4524-.94-.8004-.232-.3513-.348-.7756-.348-1.2727 0-.4375.086-.7922.259-1.0639.172-.2751.403-.4906.691-.6463.288-.1558.606-.2718.954-.3481.352-.0795.705-.1425 1.059-.1889.464-.0596.841-.1044 1.129-.1342.292-.0331.504-.0878.636-.1641.136-.0762.204-.2088.204-.3977v-.0398c0-.4905-.134-.8717-.403-1.1434-.265-.2718-.667-.4077-1.208-.4077-.56 0-.999.1226-1.317.3679s-.542.5071-.671.7855l-1.114-.3977c.199-.464.464-.8253.796-1.0838.334-.2619.699-.4442 1.093-.5469.398-.1061.789-.1591 1.174-.1591.245 0 .527.0298.845.0895.321.0563.631.174.929.353.302.179.552.4491.751.8103.199.3613.298.8452.298 1.4518v5.0312h-1.173v-1.0341h-.06c-.079.1657-.212.343-.397.532-.186.1889-.433.3496-.741.4822s-.684.1989-1.129.1989zm.179-1.054c.464 0 .856-.0911 1.174-.2734.321-.1823.563-.4177.726-.706.165-.2884.248-.5916.248-.9098v-1.0739c-.05.0597-.159.1144-.328.1641-.166.0464-.358.0878-.577.1243-.215.0331-.426.063-.631.0895-.202.0232-.366.0431-.492.0596-.305.0398-.59.1044-.855.1939-.262.0862-.474.2171-.637.3928-.159.1723-.238.4076-.238.7059 0 .4077.15.716.452.9248.305.2055.691.3082 1.158.3082zm5.463.875v-7.6364h1.173v7.6364zm.597-8.9091c-.229 0-.426-.0779-.592-.2337-.163-.1557-.244-.343-.244-.5617 0-.2188.081-.4061.244-.5618.166-.1558.363-.2337.592-.2337.228 0 .424.0779.586.2337.166.1557.249.343.249.5618 0 .2187-.083.406-.249.5617-.162.1558-.358.2337-.586.2337zm3.898-1.2727v10.1818h-1.173v-10.1818zm4.397 10.3608c-.484 0-.923-.0912-1.318-.2735-.394-.1856-.707-.4524-.939-.8004-.232-.3513-.348-.7756-.348-1.2727 0-.4375.086-.7922.258-1.0639.172-.2751.403-.4906.691-.6463.288-.1558.607-.2718.955-.3481.351-.0795.704-.1425 1.059-.1889.464-.0596.84-.1044 1.128-.1342.292-.0331.504-.0878.636-.1641.136-.0762.204-.2088.204-.3977v-.0398c0-.4905-.134-.8717-.402-1.1434-.266-.2718-.668-.4077-1.208-.4077-.561 0-1 .1226-1.318.3679s-.542.5071-.671.7855l-1.114-.3977c.199-.464.464-.8253.796-1.0838.334-.2619.699-.4442 1.093-.5469.398-.1061.789-.1591 1.174-.1591.245 0 .527.0298.845.0895.321.0563.631.174.93.353.301.179.551.4491.75.8103.199.3613.299.8452.299 1.4518v5.0312h-1.174v-1.0341h-.059c-.08.1657-.212.343-.398.532-.186.1889-.433.3496-.741.4822s-.684.1989-1.128.1989zm.179-1.054c.464 0 .855-.0911 1.173-.2734.321-.1823.563-.4177.726-.706.165-.2884.248-.5916.248-.9098v-1.0739c-.049.0597-.159.1144-.328.1641-.166.0464-.358.0878-.577.1243-.215.0331-.425.063-.631.0895-.202.0232-.366.0431-.492.0596-.305.0398-.59.1044-.855.1939-.262.0862-.474.2171-.637.3928-.159.1723-.238.4076-.238.7059 0 .4077.151.716.452.9248.305.2055.691.3082 1.159.3082zm5.621.875v-10.1818h1.174v3.7585h.099c.086-.1326.205-.3016.358-.5071.156-.2088.378-.3944.666-.5568.292-.1657.686-.2486 1.183-.2486.643 0 1.21.1608 1.701.4822.49.3215.873.7773 1.148 1.3672.275.59.413 1.286.413 2.0881 0 .8087-.138 1.5097-.413 2.103-.275.5899-.656 1.0473-1.143 1.3721-.488.3215-1.049.4823-1.686.4823-.49 0-.883-.0812-1.178-.2436-.295-.1657-.522-.353-.681-.5618-.159-.2121-.282-.3878-.368-.527h-.139v1.1733zm1.154-3.8182c0 .5767.084 1.0855.253 1.5263.169.4375.416.7805.741 1.0291.325.2453.722.3679 1.193.3679.491 0 .9-.1292 1.228-.3878.332-.2618.58-.6131.746-1.0539.169-.4442.253-.938.253-1.4816 0-.5369-.082-1.0208-.248-1.4517-.163-.4342-.41-.7772-.741-1.0291-.328-.2552-.741-.3828-1.238-.3828-.477 0-.878.121-1.203.3629-.325.2386-.57.5734-.736 1.0043-.166.4275-.248.9263-.248 1.4964zm8.556-6.3636v10.1818h-1.174v-10.1818zm5.35 10.3409c-.735 0-1.37-.1624-1.904-.4872-.53-.3281-.939-.7855-1.228-1.3722-.285-.5899-.427-1.276-.427-2.0582s.142-1.4716.427-2.0682c.289-.5999.69-1.0672 1.203-1.402.517-.3381 1.121-.5071 1.81-.5071.398 0 .791.0663 1.178.1989.388.1325.741.348 1.059.6463.318.295.572.6861.761 1.1733s.283 1.0871.283 1.7997v.4971h-5.886v-1.0142h4.693c0-.4308-.086-.8153-.258-1.1534-.169-.338-.411-.6048-.726-.8004-.312-.1955-.68-.2933-1.104-.2933-.467 0-.872.116-1.213.348-.338.2287-.598.527-.781.8949-.182.3679-.273.7623-.273 1.1832v.6762c0 .5767.099 1.0655.298 1.4666.203.3977.483.701.841.9098.357.2055.773.3082 1.247.3082.309 0 .587-.0431.836-.1292.252-.0895.469-.2221.651-.3978.182-.179.323-.401.423-.6662l1.133.3182c-.119.3845-.32.7226-.602 1.0142-.281.2884-.629.5137-1.044.6762-.414.159-.88.2386-1.397.2386zm14.294-6.0852-1.054.2983c-.067-.1757-.164-.3464-.294-.5121-.126-.169-.298-.3083-.517-.4176-.218-.1094-.498-.1641-.84-.1641-.467 0-.857.1077-1.168.3232-.308.2121-.462.4822-.462.8103 0 .2917.106.522.318.6911.212.169.543.3099.994.4226l1.134.2784c.682.1657 1.191.4192 1.526.7606.335.3381.502.7739.502 1.3076 0 .4375-.126.8286-.378 1.1733-.248.3447-.596.6164-1.044.8153-.447.1989-.968.2983-1.561.2983-.779 0-1.424-.169-1.934-.5071s-.834-.8319-.969-1.4815l1.113-.2785c.106.411.307.7193.602.9248.298.2055.688.3082 1.168.3082.547 0 .981-.116 1.303-.348.324-.2353.487-.5171.487-.8452 0-.2651-.093-.4872-.279-.6662-.185-.1823-.47-.3182-.855-.4076l-1.272-.2983c-.7-.1658-1.213-.4226-1.542-.7706-.324-.3514-.487-.7905-.487-1.3175 0-.4309.121-.812.363-1.1435.245-.3314.579-.5916.999-.7805.425-.1889.905-.2834 1.442-.2834.756 0 1.349.1657 1.78.4972.434.3314.742.7689.925 1.3125zm1.905 8.7897v-10.5h1.134v1.2131h.139c.086-.1326.205-.3016.358-.5071.156-.2088.378-.3944.666-.5568.292-.1657.686-.2486 1.183-.2486.643 0 1.21.1608 1.7.4822.491.3215.874.7773 1.149 1.3672.275.59.413 1.286.413 2.0881 0 .8087-.138 1.5097-.413 2.103-.275.5899-.656 1.0473-1.144 1.3721-.487.3215-1.049.4823-1.685.4823-.49 0-.883-.0812-1.178-.2436-.295-.1657-.522-.353-.681-.5618-.159-.2121-.282-.3878-.368-.527h-.1v4.0369zm1.154-6.6818c0 .5767.084 1.0855.253 1.5263.169.4375.416.7805.741 1.0291.325.2453.722.3679 1.193.3679.491 0 .9-.1292 1.228-.3878.331-.2618.58-.6131.746-1.0539.169-.4442.253-.938.253-1.4816 0-.5369-.083-1.0208-.248-1.4517-.163-.4342-.41-.7772-.741-1.0291-.328-.2552-.741-.3828-1.238-.3828-.477 0-.878.121-1.203.3629-.325.2386-.57.5734-.736 1.0043-.166.4275-.248.9263-.248 1.4964zm10.48 3.9773c-.69 0-1.295-.1641-1.815-.4922-.517-.3281-.921-.7872-1.213-1.3771-.288-.59-.433-1.2794-.433-2.0682 0-.7955.145-1.4898.433-2.0831.292-.5933.696-1.054 1.213-1.3821.52-.3281 1.125-.4922 1.815-.4922.689 0 1.292.1641 1.809.4922.521.3281.925.7888 1.213 1.3821.292.5933.438 1.2876.438 2.0831 0 .7888-.146 1.4782-.438 2.0682-.288.5899-.692 1.049-1.213 1.3771-.517.3281-1.12.4922-1.809.4922zm0-1.054c.523 0 .954-.1342 1.292-.4027s.589-.6214.751-1.0589.244-.9115.244-1.4219-.082-.986-.244-1.4269c-.162-.4408-.413-.7971-.751-1.0688-.338-.2718-.769-.4077-1.292-.4077-.524 0-.955.1359-1.293.4077-.338.2717-.588.628-.751 1.0688-.162.4409-.243.9165-.243 1.4269s.081.9844.243 1.4219c.163.4375.413.7904.751 1.0589s.769.4027 1.293.4027zm8.572-6.7415v.9944h-3.958v-.9944zm-2.804-1.8295h1.173v7.2784c0 .3314.048.58.144.7457.1.1624.226.2718.378.3282.156.053.32.0795.492.0795.13 0 .236-.0066.319-.0199.082-.0165.149-.0298.198-.0398l.239 1.054c-.079.0299-.19.0597-.333.0895-.143.0332-.323.0497-.542.0497-.331 0-.656-.0712-.974-.2137-.315-.1426-.577-.3597-.786-.6513-.205-.2917-.308-.6596-.308-1.1037zm9.841 3.5398-1.054.2983c-.066-.1757-.164-.3464-.293-.5121-.126-.169-.298-.3083-.517-.4176-.219-.1094-.499-.1641-.84-.1641-.468 0-.857.1077-1.169.3232-.308.2121-.462.4822-.462.8103 0 .2917.106.522.318.6911.212.169.544.3099.994.4226l1.134.2784c.683.1657 1.191.4192 1.526.7606.335.3381.502.7739.502 1.3076 0 .4375-.126.8286-.377 1.1733-.249.3447-.597.6164-1.044.8153-.448.1989-.968.2983-1.562.2983-.778 0-1.423-.169-1.934-.5071-.51-.3381-.833-.8319-.969-1.4815l1.114-.2785c.106.411.306.7193.601.9248.299.2055.688.3082 1.169.3082.546 0 .981-.116 1.302-.348.325-.2353.487-.5171.487-.8452 0-.2651-.092-.4872-.278-.6662-.186-.1823-.471-.3182-.855-.4076l-1.273-.2983c-.699-.1658-1.213-.4226-1.541-.7706-.325-.3514-.487-.7905-.487-1.3175 0-.4309.121-.812.363-1.1435.245-.3314.578-.5916.999-.7805.424-.1889.905-.2834 1.442-.2834.755 0 1.349.1657 1.779.4972.435.3314.743.7689.925 1.3125zm2.761 6.0056c-.246 0-.456-.0878-.632-.2634-.175-.1757-.263-.3862-.263-.6314 0-.2453.088-.4558.263-.6314.176-.1757.386-.2635.632-.2635.245 0 .455.0878.631.2635.176.1756.264.3861.264.6314 0 .1624-.042.3115-.125.4474-.079.1359-.187.2453-.323.3281-.132.0796-.282.1193-.447.1193z" fill="#475467"/><g stroke="#98a2b3" stroke-linecap="round" stroke-linejoin="round" stroke-width="1.66667"><path d="m330 30.8335c.46 0 .833-.3731.833-.8333 0-.4603-.373-.8334-.833-.8334s-.833.3731-.833.8334c0 .4602.373.8333.833.8333z"/><path d="m330 25.0002c.46 0 .833-.3731.833-.8334 0-.4602-.373-.8333-.833-.8333s-.833.3731-.833.8333c0 .4603.373.8334.833.8334z"/><path d="m330 36.6668c.46 0 .833-.3731.833-.8333s-.373-.8333-.833-.8333-.833.3731-.833.8333.373.8333.833.8333z"/></g><path d="m0 91h360v1h-360z" fill="#eaecf0"/><path d="m214 216c0-11.819-2.328-23.522-6.851-34.441-4.523-10.92-11.152-20.841-19.509-29.199-8.358-8.357-18.279-14.986-29.198-19.509-10.92-4.523-22.623-6.851-34.442-6.851s-23.522 2.328-34.4415 6.851c-10.9193 4.523-20.8408 11.152-29.1981 19.509-8.3573 8.358-14.9866 18.279-19.5095 29.198-4.523 10.92-6.8509 22.623-6.8509 34.442" stroke="#f2f4f7" stroke-linecap="round" stroke-linejoin="round" stroke-width="20"/><path d="m34 216c0-19.006 6.017-37.524 17.1885-52.901 11.1715-15.376 26.9241-26.821 45-32.694 18.0755-5.873 37.5475-5.873 55.6235 0 18.075 5.873 33.828 17.318 45 32.694" stroke="#7f56d9" stroke-linecap="round" stroke-linejoin="round" stroke-width="20"/><path d="m98.1368 210v-2.386l7.3832-7.65c.788-.83 1.438-1.558 1.949-2.183.519-.633.906-1.233 1.161-1.801.256-.568.384-1.172.384-1.811 0-.724-.171-1.349-.511-1.875-.341-.533-.807-.941-1.396-1.225-.59-.291-1.254-.437-1.992-.437-.781 0-1.463.16-2.046.48-.582.319-1.029.77-1.342 1.352-.312.583-.469 1.265-.469 2.046h-3.1425c0-1.328.3054-2.489.9162-3.484.6108-.994 1.4493-1.765 2.5143-2.312 1.065-.553 2.276-.83 3.633-.83 1.37 0 2.578.273 3.622.82 1.051.54 1.871 1.278 2.461 2.216.589.93.884 1.981.884 3.153 0 .81-.153 1.602-.458 2.376-.298.774-.82 1.637-1.566 2.589-.746.944-1.783 2.091-3.111 3.441l-4.336 4.538v.16h9.823v2.823zm17.4712-4.261v-2.664l9.429-14.893h2.098v3.92h-1.331l-6.744 10.675v.17h12.923v2.792zm10.345 4.261v-5.071l.021-1.215v-15.532h3.122v21.818zm17.338.362c-1.683-.007-3.121-.451-4.314-1.331-1.194-.881-2.106-2.163-2.738-3.846-.632-1.684-.948-3.711-.948-6.083 0-2.365.316-4.386.948-6.062.639-1.676 1.555-2.955 2.748-3.835 1.201-.881 2.635-1.321 4.304-1.321s3.1.443 4.294 1.331c1.193.881 2.105 2.159 2.738 3.835.639 1.669.958 3.687.958 6.052 0 2.379-.316 4.41-.948 6.093-.632 1.676-1.545 2.958-2.738 3.846-1.193.881-2.628 1.321-4.304 1.321zm0-2.844c1.478 0 2.632-.721 3.463-2.163.838-1.442 1.257-3.526 1.257-6.253 0-1.812-.192-3.342-.576-4.592-.376-1.257-.919-2.209-1.63-2.855-.703-.654-1.541-.98-2.514-.98-1.47 0-2.624.724-3.462 2.173s-1.261 3.533-1.268 6.254c0 1.818.188 3.355.565 4.612.383 1.25.927 2.199 1.63 2.845.703.639 1.548.959 2.535.959z" fill="#101828"/><rect fill="#ecfdf3" height="24" rx="12" width="62" x="274" y="116"/><path d="m290 131.5v-7m0 0-3.5 3.5m3.5-3.5 3.5 3.5" stroke="#12b76a" stroke-linecap="round" stroke-linejoin="round" stroke-width="1.5"/><path d="m305.218 122.818v10.182h-1.541v-8.641h-.06l-2.436 1.591v-1.471l2.541-1.661zm6.299 10.351c-.785-.003-1.456-.21-2.013-.621s-.983-1.01-1.278-1.795c-.295-.786-.442-1.732-.442-2.839 0-1.104.147-2.047.442-2.829.298-.782.726-1.379 1.283-1.79.56-.411 1.229-.616 2.008-.616s1.447.207 2.004.621c.557.411.983 1.008 1.278 1.79.298.779.447 1.72.447 2.824 0 1.11-.147 2.058-.442 2.844-.295.782-.721 1.38-1.278 1.795-.557.411-1.226.616-2.009.616zm0-1.327c.69 0 1.228-.337 1.616-1.01.391-.672.587-1.645.587-2.918 0-.845-.09-1.559-.269-2.143-.175-.586-.429-1.03-.76-1.332-.329-.305-.72-.457-1.174-.457-.686 0-1.224.338-1.615 1.014-.392.676-.589 1.649-.592 2.918 0 .849.088 1.566.263 2.153.179.583.433 1.026.761 1.327.328.298.723.448 1.183.448zm10.807-.751v-.537c0-.384.08-.736.239-1.054.162-.321.398-.578.706-.771.311-.195.688-.293 1.128-.293.451 0 .829.096 1.134.288.305.193.535.45.691.771.159.322.239.675.239 1.059v.537c0 .384-.08.737-.239 1.059-.159.318-.393.575-.701.77-.305.193-.679.289-1.124.289-.447 0-.825-.096-1.133-.289-.308-.195-.542-.452-.701-.77-.159-.322-.239-.675-.239-1.059zm1.159-.537v.537c0 .285.068.543.204.775.135.232.372.348.71.348.335 0 .569-.116.701-.348.133-.232.199-.49.199-.775v-.537c0-.285-.064-.544-.194-.776-.126-.232-.361-.348-.706-.348-.331 0-.566.116-.706.348-.139.232-.208.491-.208.776zm-6.279-5.29v-.537c0-.384.079-.737.238-1.059.163-.321.398-.578.706-.77.312-.193.688-.289 1.129-.289.45 0 .828.096 1.133.289.305.192.536.449.691.77.156.322.234.675.234 1.059v.537c0 .385-.08.738-.239 1.059-.155.318-.387.575-.696.771-.305.192-.679.288-1.123.288-.451 0-.831-.096-1.139-.288-.305-.196-.537-.453-.696-.771-.159-.321-.238-.674-.238-1.059zm1.163-.537v.537c0 .285.066.544.199.776.136.232.373.348.711.348.331 0 .563-.116.696-.348.136-.232.204-.491.204-.776v-.537c0-.285-.065-.543-.194-.775-.13-.232-.365-.348-.706-.348-.332 0-.567.116-.706.348-.136.232-.204.49-.204.775zm-.691 8.273 7-10.182h1.188l-7 10.182z" fill="#027a48"/><path d="m24.3807 264.364 4.2216 7.068v4.568h1.75v-4.568l4.2216-7.068h-1.9944l-3.0397 5.289h-.125l-3.0398-5.289zm13.9687 11.812c2.4603 0 4.0682-1.801 4.0682-4.5 0-2.716-1.6079-4.517-4.0682-4.517-2.4602 0-4.0682 1.801-4.0682 4.517 0 2.699 1.608 4.5 4.0682 4.5zm.0057-1.426c-1.6079 0-2.3579-1.403-2.3579-3.08 0-1.67.75-3.09 2.3579-3.09 1.5966 0 2.3466 1.42 2.3466 3.09 0 1.677-.75 3.08-2.3466 3.08zm11.4872-2.369c.0057 1.483-1.0966 2.187-2.0511 2.187-1.0511 0-1.7784-.761-1.7784-1.949v-5.346h-1.6989v5.551c0 2.165 1.1875 3.29 2.8637 3.29 1.3125 0 2.2045-.694 2.6079-1.625h.0909v1.511h1.6705v-8.727h-1.7046zm5.6818-8.017h-1.4545v1.108c0 .88-.3864 1.602-.8295 2.255l.8409.603c.875-.705 1.4431-1.91 1.4431-2.875zm9.4589 2.909h-1.8239l-2.2046 6.716h-.0909l-2.2102-6.716h-1.8239l3.1705 8.727h1.8182zm5.0454 8.903c1.9034 0 3.25-.937 3.6364-2.358l-1.608-.29c-.3068.824-1.0454 1.245-2.0113 1.245-1.4546 0-2.4319-.943-2.4773-2.625h6.2045v-.603c0-3.153-1.8863-4.386-3.8636-4.386-2.4318 0-4.0341 1.852-4.0341 4.534 0 2.71 1.5795 4.483 4.1534 4.483zm-2.4545-5.301c.0681-1.239.9659-2.313 2.3466-2.313 1.3181 0 2.1818.978 2.1875 2.313zm14.8579 5.318c1.4432 0 2.2557-.733 2.5796-1.386h.0681v1.193h1.6591v-5.795c0-2.54-2-3.046-3.3863-3.046-1.5796 0-3.0341.636-3.6023 2.227l1.5966.364c.25-.619.8864-1.216 2.0284-1.216 1.0966 0 1.6591.574 1.6591 1.563v.039c0 .62-.6364.608-2.2046.79-1.6534.193-3.3465.625-3.3465 2.608 0 1.716 1.2897 2.659 2.9488 2.659zm.3693-1.363c-.9602 0-1.6534-.432-1.6534-1.273 0-.909.8068-1.233 1.7898-1.364.5511-.074 1.858-.221 2.1023-.466v1.125c0 1.034-.8239 1.978-2.2387 1.978zm7.8992-10.466h-1.6989v11.636h1.6989zm2.2855 11.636h1.6989v-5.381c0-1.176.8238-1.994 1.7897-1.994.9432 0 1.5966.625 1.5966 1.574v5.801h1.6932v-5.562c0-1.052.6418-1.813 1.7498-1.813.898 0 1.637.5 1.637 1.682v5.693h1.698v-5.852c0-1.995-1.113-2.989-2.693-2.989-1.255 0-2.1986.602-2.6191 1.534h-.0909c-.3807-.954-1.1818-1.534-2.3466-1.534-1.1534 0-2.0113.574-2.375 1.534h-.1079v-1.42h-1.6307zm17.8172.176c2.46 0 4.068-1.801 4.068-4.5 0-2.716-1.608-4.517-4.068-4.517-2.461 0-4.069 1.801-4.069 4.517 0 2.699 1.608 4.5 4.069 4.5zm.005-1.426c-1.608 0-2.358-1.403-2.358-3.08 0-1.67.75-3.09 2.358-3.09 1.597 0 2.347 1.42 2.347 3.09 0 1.677-.75 3.08-2.347 3.08zm12.499-5.347c-.352-1.358-1.415-2.244-3.301-2.244-1.972 0-3.37 1.04-3.37 2.585 0 1.239.75 2.063 2.387 2.426l1.477.324c.841.188 1.233.563 1.233 1.108 0 .676-.722 1.205-1.835 1.205-1.017 0-1.671-.438-1.875-1.296l-1.642.25c.284 1.546 1.568 2.415 3.528 2.415 2.108 0 3.568-1.119 3.568-2.699 0-1.233-.784-1.994-2.386-2.363l-1.386-.319c-.961-.227-1.375-.551-1.37-1.142-.005-.67.722-1.147 1.688-1.147 1.057 0 1.545.585 1.744 1.17zm6.112-2.13h-1.79v-2.091h-1.699v2.091h-1.278v1.363h1.278v5.154c-.005 1.585 1.205 2.352 2.546 2.324.54-.006.903-.108 1.102-.182l-.307-1.404c-.113.023-.324.074-.596.074-.551 0-1.046-.182-1.046-1.164v-4.802h1.79zm6.114 8.727h1.699v-5.33c0-1.142.88-1.965 2.085-1.965.352 0 .75.062.886.102v-1.625c-.17-.023-.506-.04-.721-.04-1.023 0-1.898.58-2.216 1.517h-.091v-1.386h-1.642zm9.589.176c1.904 0 3.25-.937 3.637-2.358l-1.608-.29c-.307.824-1.046 1.245-2.012 1.245-1.454 0-2.432-.943-2.477-2.625h6.204v-.603c0-3.153-1.886-4.386-3.863-4.386-2.432 0-4.034 1.852-4.034 4.534 0 2.71 1.579 4.483 4.153 4.483zm-2.454-5.301c.068-1.239.966-2.313 2.346-2.313 1.318 0 2.182.978 2.188 2.313zm10.623 5.318c1.443 0 2.256-.733 2.58-1.386h.068v1.193h1.659v-5.795c0-2.54-2-3.046-3.386-3.046-1.58 0-3.034.636-3.603 2.227l1.597.364c.25-.619.886-1.216 2.028-1.216 1.097 0 1.659.574 1.659 1.563v.039c0 .62-.636.608-2.204.79-1.653.193-3.347.625-3.347 2.608 0 1.716 1.29 2.659 2.949 2.659zm.37-1.363c-.961 0-1.654-.432-1.654-1.273 0-.909.807-1.233 1.79-1.364.551-.074 1.858-.221 2.102-.466v1.125c0 1.034-.824 1.978-2.238 1.978zm9.876 1.346c2.062 0 3.398-1.238 3.585-2.937h-1.653c-.216.943-.949 1.5-1.921 1.5-1.437 0-2.363-1.199-2.363-3.103 0-1.869.943-3.045 2.363-3.045 1.08 0 1.739.682 1.921 1.5h1.653c-.182-1.761-1.619-2.932-3.602-2.932-2.46 0-4.051 1.852-4.051 4.517 0 2.631 1.534 4.5 4.068 4.5zm7.101-5.358c0-1.392.88-2.187 2.091-2.187 1.17 0 1.869.744 1.869 2.022v5.347h1.699v-5.551c0-2.176-1.193-3.29-2.989-3.29-1.358 0-2.176.591-2.585 1.534h-.108v-4.329h-1.676v11.636h1.699zm11.687 5.358c1.904 0 3.25-.937 3.637-2.358l-1.608-.29c-.307.824-1.046 1.245-2.012 1.245-1.454 0-2.431-.943-2.477-2.625h6.205v-.603c0-3.153-1.887-4.386-3.864-4.386-2.432 0-4.034 1.852-4.034 4.534 0 2.71 1.579 4.483 4.153 4.483zm-2.454-5.301c.068-1.239.966-2.313 2.346-2.313 1.319 0 2.182.978 2.188 2.313zm11.351 5.295c1.59 0 2.216-.971 2.522-1.528h.142v1.358h1.659v-11.636h-1.698v4.324h-.103c-.306-.54-.886-1.529-2.511-1.529-2.108 0-3.659 1.665-3.659 4.494 0 2.824 1.528 4.517 3.648 4.517zm.375-1.448c-1.517 0-2.307-1.336-2.307-3.086 0-1.733.772-3.034 2.307-3.034 1.483 0 2.278 1.21 2.278 3.034 0 1.836-.813 3.086-2.278 3.086zm11.681 4.551c1.404 0 2.29-.733 2.796-2.108l3.608-9.875-1.835-.017-2.211 6.772h-.091l-2.21-6.772h-1.818l3.193 8.841-.21.579c-.432 1.159-1.04 1.256-1.972 1l-.409 1.392c.205.091.648.188 1.159.188zm11.368-3.097c2.461 0 4.068-1.801 4.068-4.5 0-2.716-1.607-4.517-4.068-4.517-2.46 0-4.068 1.801-4.068 4.517 0 2.699 1.608 4.5 4.068 4.5zm.006-1.426c-1.608 0-2.358-1.403-2.358-3.08 0-1.67.75-3.09 2.358-3.09 1.597 0 2.347 1.42 2.347 3.09 0 1.677-.75 3.08-2.347 3.08zm11.487-2.369c.006 1.483-1.096 2.187-2.051 2.187-1.051 0-1.778-.761-1.778-1.949v-5.346h-1.699v5.551c0 2.165 1.187 3.29 2.863 3.29 1.313 0 2.205-.694 2.608-1.625h.091v1.511h1.671v-8.727h-1.705zm3.987 3.619h1.699v-5.33c0-1.142.881-1.965 2.086-1.965.352 0 .75.062.886.102v-1.625c-.171-.023-.506-.04-.722-.04-1.022 0-1.897.58-2.216 1.517h-.091v-1.386h-1.642zm12.074-11.636h-1.699v11.636h1.699zm2.286 11.636h1.699v-8.727h-1.699zm.858-10.074c.585 0 1.074-.454 1.074-1.011s-.489-1.017-1.074-1.017c-.591 0-1.074.46-1.074 1.017s.483 1.011 1.074 1.011zm3.126 10.074h1.699v-5.381c0-1.176.824-1.994 1.79-1.994.943 0 1.596.625 1.596 1.574v5.801h1.694v-5.562c0-1.052.642-1.813 1.75-1.813.897 0 1.636.5 1.636 1.682v5.693h1.699v-5.852c0-1.995-1.114-2.989-2.693-2.989-1.256 0-2.199.602-2.62 1.534h-.091c-.38-.954-1.181-1.534-2.346-1.534-1.154 0-2.012.574-2.375 1.534h-.108v-1.42h-1.631zm14.141 0h1.699v-8.727h-1.699zm.858-10.074c.585 0 1.074-.454 1.074-1.011s-.489-1.017-1.074-1.017c-.591 0-1.074.46-1.074 1.017s.483 1.011 1.074 1.011zm7.2 1.347h-1.79v-2.091h-1.699v2.091h-1.278v1.363h1.278v5.154c-.005 1.585 1.205 2.352 2.546 2.324.54-.006.903-.108 1.102-.182l-.307-1.404c-.113.023-.324.074-.596.074-.551 0-1.046-.182-1.046-1.164v-4.802h1.79z" fill="#101828"/><path d="m24.358 290.818h1.4119l2.8239 4.753h.1193l2.8238-4.753h1.412l-3.679 5.986v4.196h-1.233v-4.196zm12.0486 10.341c-.6894 0-1.2943-.164-1.8146-.492-.5171-.328-.9214-.787-1.2131-1.377-.2883-.59-.4325-1.28-.4325-2.068 0-.796.1442-1.49.4325-2.084.2917-.593.696-1.053 1.2131-1.382.5203-.328 1.1252-.492 1.8146-.492s1.2926.164 1.8097.492c.5203.329.9247.789 1.213 1.382.2917.594.4375 1.288.4375 2.084 0 .788-.1458 1.478-.4375 2.068-.2883.59-.6927 1.049-1.213 1.377-.5171.328-1.1203.492-1.8097.492zm0-1.054c.5237 0 .9546-.134 1.2926-.403.3381-.268.5883-.621.7507-1.059.1624-.437.2436-.911.2436-1.421 0-.511-.0812-.986-.2436-1.427s-.4126-.797-.7507-1.069c-.338-.272-.7689-.408-1.2926-.408s-.9545.136-1.2926.408-.5883.628-.7507 1.069-.2436.916-.2436 1.427c0 .51.0812.984.2436 1.421.1624.438.4126.791.7507 1.059.3381.269.7689.403 1.2926.403zm10.0637-2.227v-4.514h1.1733v7.636h-1.1733v-1.293h-.0795c-.179.388-.4574.718-.8352.99-.3779.268-.8551.402-1.4318.402-.4773 0-.9016-.104-1.2728-.313-.3712-.212-.6628-.53-.875-.954-.2121-.428-.3182-.966-.3182-1.616v-4.852h1.1733v4.772c0 .557.1558 1.001.4674 1.333.3148.331.7159.497 1.2031.497.2917 0 .5883-.075.8899-.224.3049-.149.5601-.378.7656-.686.2088-.308.3132-.701.3132-1.178zm8.4331-1.472v4.594h-1.1733v-10.182h1.1733v3.739h.0994c.179-.395.4475-.708.8054-.94.3613-.235.8419-.353 1.4418-.353.5204 0 .9761.105 1.3672.313.3911.206.6944.522.9098.95.2187.424.3281.964.3281 1.621v4.852h-1.1733v-4.773c0-.606-.1574-1.075-.4723-1.407-.3115-.334-.7441-.502-1.2976-.502-.3844 0-.7291.081-1.0341.244-.3016.162-.5402.399-.7159.711-.1723.311-.2585.689-.2585 1.133zm9.3454 4.773c-.4839 0-.9231-.091-1.3175-.273-.3944-.186-.7076-.453-.9396-.801-.2321-.351-.3481-.775-.3481-1.273 0-.437.0862-.792.2586-1.064.1723-.275.4027-.49.691-.646.2884-.156.6066-.272.9546-.348.3513-.079.7043-.142 1.0589-.189.464-.059.8402-.104 1.1286-.134.2916-.033.5038-.088.6363-.164.1359-.076.2039-.209.2039-.398v-.04c0-.49-.1343-.871-.4027-1.143-.2652-.272-.6679-.408-1.2081-.408-.5602 0-.9993.123-1.3175.368s-.5419.507-.6712.786l-1.1136-.398c.1989-.464.464-.825.7954-1.084.3348-.262.6994-.444 1.0938-.547.3977-.106.7888-.159 1.1733-.159.2453 0 .527.03.8452.09.3215.056.6314.174.9297.353.3016.179.5518.449.7507.81.1988.361.2983.845.2983 1.452v5.031h-1.1733v-1.034h-.0597c-.0795.166-.2121.343-.3977.532s-.4326.35-.7408.482c-.3082.133-.6844.199-1.1285.199zm.1789-1.054c.464 0 .8551-.091 1.1733-.273.3215-.183.5635-.418.7259-.706.1657-.289.2486-.592.2486-.91v-1.074c-.0498.06-.1591.114-.3282.164-.1657.046-.3579.088-.5767.124-.2154.033-.4259.063-.6314.09-.2021.023-.3662.043-.4921.059-.305.04-.59.105-.8552.194-.2618.086-.4739.217-.6363.393-.1591.172-.2387.408-.2387.706 0 .408.1508.716.4525.925.3049.205.691.308 1.1583.308zm11.4335-6.761-2.8239 7.636h-1.1932l-2.8239-7.636h1.2728l2.1079 6.085h.0796l2.1079-6.085zm4.4769 7.795c-.7358 0-1.3705-.162-1.9042-.487-.5303-.328-.9396-.786-1.2279-1.372-.2851-.59-.4276-1.276-.4276-2.059 0-.782.1425-1.471.4276-2.068.2883-.6.6894-1.067 1.2031-1.402.517-.338 1.1203-.507 1.8097-.507.3977 0 .7904.066 1.1782.199s.7408.348 1.059.646c.3181.295.5717.686.7606 1.174.1889.487.2834 1.087.2834 1.799v.498h-5.8864v-1.015h4.6932c0-.431-.0862-.815-.2585-1.153-.169-.338-.411-.605-.7259-.8-.3115-.196-.6794-.294-1.1036-.294-.4674 0-.8717.116-1.2131.348-.3381.229-.5983.527-.7806.895-.1822.368-.2734.762-.2734 1.183v.676c0 .577.0994 1.066.2983 1.467.2022.398.4822.701.8402.91.358.205.7739.308 1.2479.308.3082 0 .5866-.043.8352-.129.2519-.09.469-.222.6513-.398.1823-.179.3231-.401.4226-.666l1.1335.318c-.1193.385-.3199.723-.6016 1.014-.2817.289-.6297.514-1.044.676-.4143.16-.88.239-1.397.239zm13.6967-3.281v-4.514h1.1733v7.636h-1.1733v-1.293h-.0795c-.179.388-.4574.718-.8353.99-.3778.268-.8551.402-1.4318.402-.4773 0-.9015-.104-1.2727-.313-.3712-.212-.6629-.53-.875-.954-.2121-.428-.3182-.966-.3182-1.616v-4.852h1.1733v4.772c0 .557.1558 1.001.4673 1.333.3149.331.7159.497 1.2032.497.2916 0 .5883-.075.8899-.224.3049-.149.5601-.378.7656-.686.2088-.308.3132-.701.3132-1.178zm8.7312-2.804-1.054.298c-.066-.176-.164-.346-.293-.512-.126-.169-.298-.308-.517-.418-.219-.109-.499-.164-.84-.164-.4677 0-.8572.108-1.1687.324-.3083.212-.4624.482-.4624.81 0 .292.1061.522.3182.691s.5436.31.9943.423l1.1336.278c.683.166 1.191.419 1.526.761.335.338.502.774.502 1.307 0 .438-.126.829-.377 1.173-.249.345-.597.617-1.045.816-.447.199-.967.298-1.5606.298-.7789 0-1.4235-.169-1.9339-.507-.5105-.338-.8336-.832-.9695-1.482l1.1136-.278c.1061.411.3066.719.6016.925.2983.205.6877.308 1.1683.308.5465 0 .9815-.116 1.3025-.348.325-.235.487-.517.487-.845 0-.265-.093-.487-.278-.666-.186-.183-.471-.319-.855-.408l-1.273-.298c-.6993-.166-1.213-.423-1.5411-.771-.3249-.351-.4873-.79-.4873-1.317 0-.431.121-.812.363-1.144.2452-.331.5783-.591.9993-.78.4242-.189.9048-.284 1.4421-.284.755 0 1.349.166 1.779.497.435.332.743.769.925 1.313zm5.107 6.085c-.736 0-1.37-.162-1.904-.487-.53-.328-.94-.786-1.228-1.372-.285-.59-.427-1.276-.427-2.059 0-.782.142-1.471.427-2.068.288-.6.69-1.067 1.203-1.402.517-.338 1.121-.507 1.81-.507.398 0 .79.066 1.178.199s.741.348 1.059.646c.318.295.572.686.761 1.174.189.487.283 1.087.283 1.799v.498h-5.886v-1.015h4.693c0-.431-.086-.815-.259-1.153-.169-.338-.411-.605-.725-.8-.312-.196-.68-.294-1.104-.294-.467 0-.872.116-1.213.348-.338.229-.598.527-.781.895-.182.368-.273.762-.273 1.183v.676c0 .577.099 1.066.298 1.467.202.398.482.701.84.91.358.205.774.308 1.248.308.308 0 .587-.043.835-.129.252-.09.469-.222.652-.398.182-.179.323-.401.422-.666l1.134.318c-.119.385-.32.723-.602 1.014-.281.289-.629.514-1.044.676-.414.16-.88.239-1.397.239zm7.83 0c-.636 0-1.198-.161-1.685-.482-.487-.325-.868-.782-1.143-1.372-.275-.594-.413-1.295-.413-2.103 0-.802.138-1.498.413-2.088s.658-1.046 1.148-1.368c.491-.321 1.057-.482 1.7-.482.498 0 .89.083 1.179.249.291.162.513.348.666.557.156.205.277.374.363.507h.099v-3.759h1.173v10.182h-1.133v-1.173h-.139c-.086.139-.209.315-.368.527-.159.208-.386.396-.681.561-.295.163-.688.244-1.179.244zm.16-1.054c.47 0 .868-.123 1.193-.368.325-.248.571-.591.741-1.029.169-.441.253-.949.253-1.526 0-.57-.083-1.069-.249-1.497-.165-.431-.41-.765-.735-1.004-.325-.242-.726-.363-1.203-.363-.498 0-.912.128-1.243.383-.328.252-.575.595-.741 1.029-.162.431-.244.915-.244 1.452 0 .543.083 1.037.249 1.481.169.441.417.792.746 1.054.331.259.742.388 1.233.388zm12.831 1.034c-.683 0-1.286-.121-1.809-.363-.521-.245-.927-.581-1.218-1.009-.292-.431-.436-.921-.433-1.472-.003-.43.081-.828.254-1.193.172-.368.407-.674.706-.919.301-.249.638-.406 1.009-.473v-.059c-.487-.126-.875-.4-1.164-.821-.288-.424-.43-.906-.427-1.446-.003-.518.127-.98.393-1.388.265-.407.629-.729 1.093-.964.468-.235 1-.353 1.596-.353.59 0 1.117.118 1.581.353s.829.557 1.094.964c.268.408.404.87.408 1.388-.004.54-.151 1.022-.443 1.446-.288.421-.671.695-1.148.821v.059c.368.067.699.224.994.473.295.245.53.551.706.919.176.365.265.763.268 1.193-.003.551-.152 1.041-.447 1.472-.292.428-.698.764-1.218 1.009-.517.242-1.115.363-1.795.363zm0-1.094c.461 0 .859-.074 1.193-.223.335-.149.594-.36.776-.632.182-.271.275-.59.278-.954-.003-.385-.102-.724-.298-1.019-.195-.295-.462-.527-.8-.696-.335-.169-.718-.254-1.149-.254-.434 0-.822.085-1.163.254-.338.169-.605.401-.801.696-.192.295-.286.634-.283 1.019-.003.364.085.683.264.954.182.272.442.483.78.632s.739.223 1.203.223zm0-4.832c.365 0 .688-.073.97-.219.285-.146.508-.349.671-.611.162-.262.245-.569.248-.92-.003-.345-.084-.645-.243-.9-.159-.258-.38-.457-.661-.596-.282-.143-.61-.214-.985-.214-.381 0-.714.071-.999.214-.285.139-.505.338-.661.596-.156.255-.232.555-.229.9-.003.351.075.658.234.92.162.262.386.465.671.611s.613.219.984.219zm8.687 5.926c-.749 0-1.387-.204-1.914-.611-.527-.411-.93-1.006-1.208-1.785-.279-.782-.418-1.727-.418-2.834 0-1.1.139-2.04.418-2.819.281-.782.686-1.379 1.213-1.79.53-.414 1.166-.621 1.909-.621.742 0 1.377.207 1.904.621.53.411.935 1.008 1.213 1.79.282.779.423 1.719.423 2.819 0 1.107-.14 2.052-.418 2.834-.278.779-.681 1.374-1.208 1.785-.527.407-1.165.611-1.914.611zm0-1.094c.742 0 1.319-.358 1.73-1.073.411-.716.616-1.737.616-3.063 0-.882-.094-1.632-.283-2.252-.186-.62-.454-1.092-.805-1.417-.348-.325-.768-.487-1.258-.487-.736 0-1.311.363-1.725 1.089-.415.722-.622 1.745-.622 3.067 0 .882.093 1.631.279 2.247.185.617.452 1.086.8 1.407.351.322.774.482 1.268.482zm10.619-.954v-.537c0-.371.076-.711.229-1.019.156-.312.381-.56.676-.746.298-.189.66-.283 1.084-.283.431 0 .792.094 1.084.283.291.186.512.434.661.746.149.308.224.648.224 1.019v.537c0 .371-.077.713-.229 1.024-.149.308-.371.557-.666.746-.292.185-.65.278-1.074.278-.431 0-.794-.093-1.089-.278-.295-.189-.519-.438-.671-.746-.153-.311-.229-.653-.229-1.024zm1.014-.537v.537c0 .308.073.585.219.83.146.242.398.363.756.363.348 0 .593-.121.736-.363.145-.245.218-.522.218-.83v-.537c0-.308-.069-.583-.208-.825-.14-.246-.388-.368-.746-.368-.348 0-.598.122-.751.368-.149.242-.224.517-.224.825zm-6.085-5.29v-.537c0-.371.076-.711.229-1.019.156-.311.381-.56.676-.746.298-.189.66-.283 1.084-.283.431 0 .792.094 1.084.283.291.186.512.435.661.746.149.308.224.648.224 1.019v.537c0 .371-.077.713-.229 1.024-.149.309-.371.557-.666.746-.292.186-.65.278-1.074.278-.431 0-.794-.092-1.089-.278-.295-.189-.519-.437-.671-.746-.153-.311-.229-.653-.229-1.024zm1.014-.537v.537c0 .308.073.585.219.83.146.242.398.363.756.363.348 0 .593-.121.736-.363.145-.245.218-.522.218-.83v-.537c0-.308-.069-.583-.208-.825-.14-.245-.388-.368-.746-.368-.348 0-.598.123-.751.368-.149.242-.224.517-.224.825zm-.636 8.273 7-10.182h1.134l-7 10.182zm17.937.159c-.689 0-1.294-.164-1.814-.492-.517-.328-.922-.787-1.213-1.377-.289-.59-.433-1.28-.433-2.068 0-.796.144-1.49.433-2.084.291-.593.696-1.053 1.213-1.382.52-.328 1.125-.492 1.814-.492.69 0 1.293.164 1.81.492.521.329.925.789 1.213 1.382.292.594.438 1.288.438 2.084 0 .788-.146 1.478-.438 2.068-.288.59-.692 1.049-1.213 1.377-.517.328-1.12.492-1.81.492zm0-1.054c.524 0 .955-.134 1.293-.403.338-.268.588-.621.751-1.059.162-.437.243-.911.243-1.421 0-.511-.081-.986-.243-1.427-.163-.441-.413-.797-.751-1.069s-.769-.408-1.293-.408c-.523 0-.954.136-1.292.408s-.588.628-.751 1.069c-.162.441-.243.916-.243 1.427 0 .51.081.984.243 1.421.163.438.413.791.751 1.059.338.269.769.403 1.292.403zm8.652-6.741v.994h-4.116v-.994zm-2.883 7.636v-8.69c0-.438.103-.802.308-1.094.206-.292.472-.511.8-.656.329-.146.675-.219 1.04-.219.288 0 .523.023.705.07.183.046.319.089.408.129l-.338 1.014c-.06-.02-.142-.045-.248-.075-.103-.029-.239-.044-.408-.044-.388 0-.668.097-.84.293-.169.196-.254.482-.254.86v8.412zm9.221 2.864c-.199 0-.376-.017-.532-.05-.156-.03-.264-.06-.323-.09l.298-1.034c.285.073.537.1.756.08.218-.02.412-.118.581-.293.173-.173.33-.453.473-.841l.218-.596-2.823-7.676h1.272l2.108 6.085h.08l2.108-6.085h1.272l-3.241 8.75c-.146.394-.326.721-.542.979-.215.262-.466.456-.751.582-.281.126-.6.189-.954.189zm9.866-2.705c-.689 0-1.294-.164-1.815-.492-.517-.328-.921-.787-1.213-1.377-.288-.59-.432-1.28-.432-2.068 0-.796.144-1.49.432-2.084.292-.593.696-1.053 1.213-1.382.521-.328 1.126-.492 1.815-.492s1.293.164 1.81.492c.52.329.924.789 1.213 1.382.291.594.437 1.288.437 2.084 0 .788-.146 1.478-.437 2.068-.289.59-.693 1.049-1.213 1.377-.517.328-1.121.492-1.81.492zm0-1.054c.524 0 .955-.134 1.293-.403.338-.268.588-.621.75-1.059.163-.437.244-.911.244-1.421 0-.511-.081-.986-.244-1.427-.162-.441-.412-.797-.75-1.069s-.769-.408-1.293-.408-.955.136-1.293.408-.588.628-.75 1.069c-.163.441-.244.916-.244 1.427 0 .51.081.984.244 1.421.162.438.412.791.75 1.059.338.269.769.403 1.293.403zm10.064-2.227v-4.514h1.173v7.636h-1.173v-1.293h-.08c-.179.388-.457.718-.835.99-.378.268-.855.402-1.432.402-.477 0-.901-.104-1.273-.313-.371-.212-.662-.53-.875-.954-.212-.428-.318-.966-.318-1.616v-4.852h1.174v4.772c0 .557.155 1.001.467 1.333.315.331.716.497 1.203.497.292 0 .588-.075.89-.224.305-.149.56-.378.765-.686.209-.308.314-.701.314-1.178zm3.322 3.122v-7.636h1.133v1.153h.08c.139-.378.391-.684.756-.92.364-.235.775-.353 1.233-.353.086 0 .194.002.323.005.129.004.227.009.293.015v1.193c-.04-.01-.131-.024-.273-.044-.139-.024-.287-.035-.443-.035-.371 0-.702.078-.994.234-.288.152-.517.364-.686.636-.166.268-.249.575-.249.92v4.832zm11.394.179c-.484 0-.923-.091-1.318-.273-.394-.186-.707-.453-.939-.801-.232-.351-.348-.775-.348-1.273 0-.437.086-.792.258-1.064.172-.275.403-.49.691-.646s.607-.272.955-.348c.351-.079.704-.142 1.059-.189.464-.059.84-.104 1.128-.134.292-.033.504-.088.636-.164.136-.076.204-.209.204-.398v-.04c0-.49-.134-.871-.402-1.143-.266-.272-.668-.408-1.208-.408-.561 0-1 .123-1.318.368s-.542.507-.671.786l-1.114-.398c.199-.464.464-.825.796-1.084.334-.262.699-.444 1.093-.547.398-.106.789-.159 1.174-.159.245 0 .527.03.845.09.321.056.631.174.93.353.301.179.551.449.75.81s.299.845.299 1.452v5.031h-1.174v-1.034h-.059c-.08.166-.212.343-.398.532s-.433.35-.741.482c-.308.133-.684.199-1.128.199zm.179-1.054c.464 0 .855-.091 1.173-.273.321-.183.563-.418.726-.706.165-.289.248-.592.248-.91v-1.074c-.049.06-.159.114-.328.164-.166.046-.358.088-.577.124-.215.033-.425.063-.631.09-.202.023-.366.043-.492.059-.305.04-.59.105-.855.194-.262.086-.474.217-.637.393-.159.172-.238.408-.238.706 0 .408.151.716.452.925.305.205.691.308 1.159.308zm11.433-6.761-2.824 7.636h-1.193l-2.824-7.636h1.273l2.108 6.085h.079l2.108-6.085zm3.563 7.815c-.484 0-.923-.091-1.317-.273-.394-.186-.708-.453-.94-.801-.232-.351-.348-.775-.348-1.273 0-.437.086-.792.259-1.064.172-.275.403-.49.691-.646s.606-.272.954-.348c.352-.079.705-.142 1.059-.189.464-.059.841-.104 1.129-.134.292-.033.504-.088.636-.164.136-.076.204-.209.204-.398v-.04c0-.49-.134-.871-.403-1.143-.265-.272-.667-.408-1.208-.408-.56 0-.999.123-1.317.368s-.542.507-.671.786l-1.114-.398c.199-.464.464-.825.795-1.084.335-.262.7-.444 1.094-.547.398-.106.789-.159 1.174-.159.245 0 .527.03.845.09.321.056.631.174.929.353.302.179.552.449.751.81s.298.845.298 1.452v5.031h-1.173v-1.034h-.06c-.079.166-.212.343-.397.532-.186.189-.433.35-.741.482-.308.133-.684.199-1.129.199zm.179-1.054c.464 0 .855-.091 1.174-.273.321-.183.563-.418.726-.706.165-.289.248-.592.248-.91v-1.074c-.05.06-.159.114-.328.164-.166.046-.358.088-.577.124-.215.033-.426.063-.631.09-.202.023-.366.043-.492.059-.305.04-.59.105-.855.194-.262.086-.474.217-.637.393-.159.172-.238.408-.238.706 0 .408.15.716.452.925.305.205.691.308 1.158.308zm5.463.875v-7.636h1.173v7.636zm.597-8.909c-.229 0-.426-.078-.592-.234-.163-.156-.244-.343-.244-.562 0-.218.081-.406.244-.561.166-.156.363-.234.592-.234.228 0 .424.078.586.234.166.155.249.343.249.561 0 .219-.083.406-.249.562-.162.156-.358.234-.586.234zm3.898-1.273v10.182h-1.173v-10.182zm4.397 10.361c-.484 0-.923-.091-1.318-.273-.394-.186-.707-.453-.94-.801-.232-.351-.348-.775-.348-1.273 0-.437.087-.792.259-1.064.172-.275.403-.49.691-.646s.607-.272.955-.348c.351-.079.704-.142 1.059-.189.464-.059.84-.104 1.128-.134.292-.033.504-.088.636-.164.136-.076.204-.209.204-.398v-.04c0-.49-.134-.871-.402-1.143-.266-.272-.668-.408-1.208-.408-.561 0-1 .123-1.318.368s-.542.507-.671.786l-1.114-.398c.199-.464.464-.825.796-1.084.334-.262.699-.444 1.093-.547.398-.106.789-.159 1.174-.159.245 0 .527.03.845.09.321.056.631.174.93.353.301.179.551.449.75.81s.299.845.299 1.452v5.031h-1.174v-1.034h-.059c-.08.166-.212.343-.398.532s-.433.35-.741.482c-.308.133-.684.199-1.128.199zm.179-1.054c.464 0 .855-.091 1.173-.273.321-.183.563-.418.726-.706.165-.289.248-.592.248-.91v-1.074c-.049.06-.159.114-.328.164-.166.046-.358.088-.577.124-.215.033-.425.063-.631.09-.202.023-.366.043-.492.059-.305.04-.59.105-.855.194-.262.086-.474.217-.637.393-.159.172-.238.408-.238.706 0 .408.151.716.452.925.305.205.691.308 1.159.308zm5.621.875v-10.182h1.173v3.759h.1c.086-.133.205-.302.358-.507.156-.209.378-.395.666-.557.292-.166.686-.249 1.183-.249.643 0 1.21.161 1.701.482.49.322.873.778 1.148 1.368s.413 1.286.413 2.088c0 .808-.138 1.509-.413 2.103-.275.59-.656 1.047-1.143 1.372-.488.321-1.049.482-1.686.482-.49 0-.883-.081-1.178-.244-.295-.165-.522-.353-.681-.561-.159-.212-.282-.388-.368-.527h-.139v1.173zm1.154-3.818c0 .577.084 1.085.253 1.526.169.438.416.781.741 1.029.325.245.722.368 1.193.368.491 0 .9-.129 1.228-.388.332-.262.58-.613.746-1.054.169-.444.253-.938.253-1.481 0-.537-.082-1.021-.248-1.452-.163-.434-.41-.777-.741-1.029-.328-.255-.741-.383-1.238-.383-.477 0-.878.121-1.203.363-.325.239-.57.573-.736 1.004-.166.428-.248.927-.248 1.497zm8.556-6.364v10.182h-1.174v-10.182zm5.35 10.341c-.735 0-1.37-.162-1.904-.487-.53-.328-.939-.786-1.228-1.372-.285-.59-.427-1.276-.427-2.059 0-.782.142-1.471.427-2.068.289-.6.69-1.067 1.203-1.402.517-.338 1.121-.507 1.81-.507.398 0 .791.066 1.178.199.388.133.741.348 1.059.646.318.295.572.686.761 1.174.189.487.283 1.087.283 1.799v.498h-5.886v-1.015h4.693c0-.431-.086-.815-.258-1.153-.169-.338-.411-.605-.726-.8-.312-.196-.68-.294-1.104-.294-.467 0-.872.116-1.213.348-.338.229-.598.527-.781.895-.182.368-.273.762-.273 1.183v.676c0 .577.099 1.066.298 1.467.203.398.483.701.841.91.357.205.773.308 1.247.308.309 0 .587-.043.836-.129.252-.09.469-.222.651-.398.182-.179.323-.401.422-.666l1.134.318c-.119.385-.32.723-.602 1.014-.281.289-.629.514-1.044.676-.414.16-.88.239-1.397.239zm14.294-6.085-1.054.298c-.067-.176-.164-.346-.294-.512-.126-.169-.298-.308-.517-.418-.218-.109-.498-.164-.84-.164-.467 0-.857.108-1.168.324-.308.212-.463.482-.463.81 0 .292.107.522.319.691s.543.31.994.423l1.134.278c.682.166 1.191.419 1.526.761.335.338.502.774.502 1.307 0 .438-.126.829-.378 1.173-.248.345-.597.617-1.044.816s-.968.298-1.561.298c-.779 0-1.424-.169-1.934-.507s-.834-.832-.969-1.482l1.113-.278c.106.411.307.719.602.925.298.205.687.308 1.168.308.547 0 .981-.116 1.303-.348.324-.235.487-.517.487-.845 0-.265-.093-.487-.279-.666-.185-.183-.47-.319-.855-.408l-1.272-.298c-.7-.166-1.213-.423-1.542-.771-.324-.351-.487-.79-.487-1.317 0-.431.121-.812.363-1.144.245-.331.578-.591.999-.78.425-.189.905-.284 1.442-.284.756 0 1.349.166 1.78.497.434.332.742.769.925 1.313zm1.905 8.79v-10.5h1.134v1.213h.139c.086-.133.205-.302.358-.507.156-.209.378-.395.666-.557.292-.166.686-.249 1.183-.249.643 0 1.21.161 1.7.482.491.322.874.778 1.149 1.368s.413 1.286.413 2.088c0 .808-.138 1.509-.413 2.103-.275.59-.656 1.047-1.144 1.372-.487.321-1.049.482-1.685.482-.49 0-.883-.081-1.178-.244-.295-.165-.522-.353-.681-.561-.159-.212-.282-.388-.368-.527h-.1v4.037zm1.153-6.682c0 .577.085 1.085.254 1.526.169.438.416.781.741 1.029.325.245.722.368 1.193.368.491 0 .9-.129 1.228-.388.331-.262.58-.613.746-1.054.169-.444.253-.938.253-1.481 0-.537-.083-1.021-.248-1.452-.163-.434-.41-.777-.741-1.029-.328-.255-.741-.383-1.238-.383-.477 0-.878.121-1.203.363-.325.239-.57.573-.736 1.004-.166.428-.249.927-.249 1.497zm10.481 3.977c-.69 0-1.295-.164-1.815-.492-.517-.328-.921-.787-1.213-1.377-.288-.59-.433-1.28-.433-2.068 0-.796.145-1.49.433-2.084.292-.593.696-1.053 1.213-1.382.52-.328 1.125-.492 1.815-.492.689 0 1.292.164 1.809.492.521.329.925.789 1.213 1.382.292.594.438 1.288.438 2.084 0 .788-.146 1.478-.438 2.068-.288.59-.692 1.049-1.213 1.377-.517.328-1.12.492-1.809.492zm0-1.054c.523 0 .954-.134 1.292-.403.338-.268.589-.621.751-1.059.162-.437.244-.911.244-1.421 0-.511-.082-.986-.244-1.427s-.413-.797-.751-1.069-.769-.408-1.292-.408c-.524 0-.955.136-1.293.408s-.588.628-.751 1.069c-.162.441-.243.916-.243 1.427 0 .51.081.984.243 1.421.163.438.413.791.751 1.059.338.269.769.403 1.293.403zm8.572-6.741v.994h-3.958v-.994zm-2.804-1.83h1.173v7.278c0 .332.048.581.144.746.1.163.226.272.378.328.156.053.32.08.492.08.13 0 .236-.007.319-.02.082-.017.149-.03.198-.04l.239 1.054c-.079.03-.191.06-.333.09-.143.033-.323.049-.542.049-.331 0-.656-.071-.974-.213-.315-.143-.577-.36-.786-.652-.205-.291-.308-.659-.308-1.103zm9.841 3.54-1.054.298c-.066-.176-.164-.346-.293-.512-.126-.169-.298-.308-.517-.418-.219-.109-.499-.164-.84-.164-.468 0-.857.108-1.169.324-.308.212-.462.482-.462.81 0 .292.106.522.318.691s.544.31.994.423l1.134.278c.683.166 1.191.419 1.526.761.335.338.502.774.502 1.307 0 .438-.126.829-.377 1.173-.249.345-.597.617-1.045.816-.447.199-.967.298-1.561.298-.778 0-1.423-.169-1.934-.507-.51-.338-.833-.832-.969-1.482l1.114-.278c.106.411.306.719.601.925.298.205.688.308 1.169.308.546 0 .981-.116 1.302-.348.325-.235.487-.517.487-.845 0-.265-.093-.487-.278-.666-.186-.183-.471-.319-.855-.408l-1.273-.298c-.699-.166-1.213-.423-1.541-.771-.325-.351-.487-.79-.487-1.317 0-.431.121-.812.363-1.144.245-.331.578-.591.999-.78.424-.189.905-.284 1.442-.284.755 0 1.349.166 1.779.497.435.332.743.769.925 1.313zm2.761 6.006c-.246 0-.456-.088-.632-.264-.175-.176-.263-.386-.263-.631 0-.246.088-.456.263-.632.176-.175.386-.263.632-.263.245 0 .455.088.631.263.176.176.264.386.264.632 0 .162-.042.311-.125.447-.079.136-.187.245-.323.328-.132.08-.282.12-.447.12zm-275.7372 9.738h1.2329v6.742c0 .696-.164 1.317-.4922 1.864-.3248.544-.7838.973-1.3771 1.288-.5933.311-1.2893.467-2.0881.467-.7987 0-1.4948-.156-2.088-.467-.5933-.315-1.054-.744-1.3821-1.288-.3248-.547-.4872-1.168-.4872-1.864v-6.742h1.2329v6.642c0 .497.1094.94.3281 1.328.2188.384.5303.687.9347.909.4077.219.8949.329 1.4616.329.5668 0 1.054-.11 1.4617-.329.4077-.222.7192-.525.9346-.909.2188-.388.3282-.831.3282-1.328zm3.536 13.046v-10.5h1.1335v1.213h.1392c.0862-.133.2055-.302.358-.507.1558-.209.3778-.395.6662-.557.2917-.166.6861-.249 1.1832-.249.643 0 1.2098.161 1.7003.482.4905.322.8734.778 1.1485 1.368.275.59.4126 1.286.4126 2.088 0 .808-.1376 1.509-.4126 2.103-.2751.59-.6563 1.047-1.1435 1.372-.4872.321-1.049.482-1.6854.482-.4905 0-.8833-.081-1.1783-.244-.2949-.165-.522-.353-.6811-.561-.159-.212-.2817-.388-.3679-.527h-.0994v4.037zm1.1534-6.682c0 .577.0845 1.085.2536 1.526.169.438.4159.781.7407 1.029.3249.245.7226.368 1.1932.368.4906 0 .8999-.129 1.228-.388.3314-.262.58-.613.7457-1.054.1691-.444.2536-.938.2536-1.481 0-.537-.0829-1.021-.2486-1.452-.1624-.434-.4093-.777-.7407-1.029-.3282-.255-.7408-.383-1.238-.383-.4772 0-.8783.121-1.2031.363-.3248.239-.5701.573-.7358 1.004-.1657.428-.2486.927-.2486 1.497zm10.4603 6.841c-.5668 0-1.054-.073-1.4617-.219-.4077-.143-.7474-.331-1.0192-.567-.2684-.232-.4822-.48-.6413-.746l.9347-.656c.106.139.2402.299.4027.477.1624.183.3844.34.6661.473.2851.136.658.204 1.1187.204.6164 0 1.1252-.15 1.5262-.448.4011-.298.6016-.765.6016-1.402v-1.551h-.0994c-.0862.139-.2088.312-.3679.517-.1558.202-.3812.383-.6762.542-.2916.156-.6861.234-1.1832.234-.6165 0-1.17-.146-1.6605-.438-.4872-.291-.8734-.716-1.1584-1.273-.2817-.556-.4226-1.233-.4226-2.028 0-.782.1376-1.463.4127-2.043.275-.584.6579-1.034 1.1484-1.353.4905-.321 1.0573-.482 1.7003-.482.4971 0 .8915.083 1.1832.249.295.162.5204.348.6762.557.159.205.2817.374.3678.507h.1194v-1.213h1.1335v7.855c0 .656-.1492 1.19-.4475 1.601-.2949.414-.6927.717-1.1931.909-.4972.196-1.0507.294-1.6605.294zm-.0398-4.196c.4706 0 .8684-.108 1.1932-.323.3248-.216.5717-.526.7407-.93.1691-.404.2536-.888.2536-1.452 0-.55-.0829-1.036-.2486-1.457-.1657-.42-.411-.75-.7358-.989s-.7258-.358-1.2031-.358c-.4972 0-.9115.126-1.2429.378-.3281.252-.5751.59-.7408 1.014-.1624.424-.2436.895-.2436 1.412 0 .53.0829.999.2486 1.407.169.404.4176.723.7457.955.3315.228.7425.343 1.233.343zm5.4886 1.173v-7.636h1.1335v1.153h.0796c.1392-.378.3911-.684.7557-.92.3646-.235.7755-.353 1.2329-.353.0862 0 .1939.002.3232.005.1292.004.227.009.2933.015v1.193c-.0398-.01-.1309-.024-.2734-.044-.1392-.024-.2867-.035-.4425-.035-.3712 0-.7027.078-.9943.234-.2884.152-.5171.364-.6861.636-.1657.268-.2486.575-.2486.92v4.832zm7.4562.179c-.4839 0-.9231-.091-1.3175-.273-.3944-.186-.7076-.453-.9396-.801-.232-.351-.3481-.775-.3481-1.273 0-.437.0862-.792.2586-1.064.1723-.275.4027-.49.691-.646.2884-.156.6066-.272.9546-.348.3513-.079.7043-.142 1.0589-.189.464-.059.8402-.104 1.1286-.134.2916-.033.5038-.088.6363-.164.1359-.076.2039-.209.2039-.398v-.04c0-.49-.1343-.871-.4027-1.143-.2652-.272-.6679-.408-1.2081-.408-.5602 0-.9993.123-1.3175.368s-.5419.507-.6712.786l-1.1136-.398c.1989-.464.464-.825.7955-1.084.3347-.262.6993-.444 1.0937-.547.3977-.106.7888-.159 1.1733-.159.2453 0 .527.03.8452.09.3215.056.6314.174.9297.353.3016.179.5518.449.7507.81.1988.361.2983.845.2983 1.452v5.031h-1.1733v-1.034h-.0597c-.0795.166-.2121.343-.3977.532s-.4325.35-.7408.482c-.3082.133-.6844.199-1.1285.199zm.1789-1.054c.4641 0 .8552-.091 1.1733-.273.3215-.183.5635-.418.7259-.706.1657-.289.2486-.592.2486-.91v-1.074c-.0498.06-.1591.114-.3282.164-.1657.046-.3579.088-.5767.124-.2154.033-.4259.063-.6314.09-.2021.023-.3662.043-.4921.059-.305.04-.59.105-.8552.194-.2618.086-.4739.217-.6363.393-.1591.172-.2387.408-.2387.706 0 .408.1508.716.4525.925.3049.205.691.308 1.1583.308zm8.3461 1.034c-.6364 0-1.1982-.161-1.6854-.482-.4872-.325-.8683-.782-1.1434-1.372-.2751-.594-.4127-1.295-.4127-2.103 0-.802.1376-1.498.4127-2.088s.6579-1.046 1.1484-1.368c.4905-.321 1.0573-.482 1.7003-.482.4971 0 .8899.083 1.1782.249.2917.162.5138.348.6662.557.1558.205.2768.374.363.507h.0994v-3.759h1.1733v10.182h-1.1335v-1.173h-.1392c-.0862.139-.2088.315-.3679.527-.1591.208-.3862.396-.6811.561-.295.163-.6878.244-1.1783.244zm.1591-1.054c.4706 0 .8684-.123 1.1932-.368.3248-.248.5717-.591.7407-1.029.1691-.441.2536-.949.2536-1.526 0-.57-.0829-1.069-.2486-1.497-.1657-.431-.411-.765-.7358-1.004-.3248-.242-.7258-.363-1.2031-.363-.4972 0-.9115.128-1.2429.383-.3281.252-.5751.595-.7408 1.029-.1624.431-.2436.915-.2436 1.452 0 .543.0829 1.037.2486 1.481.169.441.4176.792.7457 1.054.3315.259.7425.388 1.233.388zm8.8544 1.054c-.7358 0-1.3705-.162-1.9041-.487-.5303-.328-.9397-.786-1.228-1.372-.2851-.59-.4276-1.276-.4276-2.059 0-.782.1425-1.471.4276-2.068.2883-.6.6894-1.067 1.2031-1.402.5171-.338 1.1203-.507 1.8097-.507.3977 0 .7905.066 1.1782.199.3878.133.7408.348 1.059.646.3182.295.5717.686.7606 1.174.189.487.2834 1.087.2834 1.799v.498h-5.8863v-1.015h4.6931c0-.431-.0861-.815-.2585-1.153-.169-.338-.411-.605-.7258-.8-.3116-.196-.6795-.294-1.1037-.294-.4674 0-.8717.116-1.2131.348-.3381.229-.5982.527-.7805.895s-.2735.762-.2735 1.183v.676c0 .577.0995 1.066.2983 1.467.2022.398.4823.701.8402.91.358.205.7739.308 1.2479.308.3082 0 .5866-.043.8352-.129.2519-.09.469-.222.6513-.398.1823-.179.3231-.401.4226-.666l1.1335.318c-.1193.385-.3198.723-.6016 1.014-.2817.289-.6297.514-1.044.676-.4143.16-.88.239-1.397.239zm8.8842 2.705v-10.5h1.1335v1.213h.1393c.0861-.133.2054-.302.3579-.507.1558-.209.3778-.395.6662-.557.2917-.166.6861-.249 1.1832-.249.643 0 1.2098.161 1.7003.482.4906.322.8734.778 1.1485 1.368s.4126 1.286.4126 2.088c0 .808-.1375 1.509-.4126 2.103-.2751.59-.6563 1.047-1.1435 1.372-.4872.321-1.049.482-1.6854.482-.4905 0-.8833-.081-1.1782-.244-.295-.165-.5221-.353-.6812-.561-.159-.212-.2817-.388-.3678-.527h-.0995v4.037zm1.1534-6.682c0 .577.0845 1.085.2536 1.526.169.438.4159.781.7408 1.029.3248.245.7225.368 1.1931.368.4906 0 .8999-.129 1.228-.388.3315-.262.58-.613.7458-1.054.169-.444.2535-.938.2535-1.481 0-.537-.0829-1.021-.2486-1.452-.1624-.434-.4093-.777-.7407-1.029-.3282-.255-.7408-.383-1.238-.383-.4772 0-.8783.121-1.2031.363-.3248.239-.5701.573-.7358 1.004-.1657.428-.2486.927-.2486 1.497zm8.5512-6.364v10.182h-1.1733v-10.182zm4.3962 10.361c-.484 0-.9232-.091-1.3176-.273-.3944-.186-.7076-.453-.9396-.801-.232-.351-.348-.775-.348-1.273 0-.437.0862-.792.2585-1.064.1724-.275.4027-.49.6911-.646.2883-.156.6065-.272.9545-.348.3511-.079.7041-.142 1.0591-.189.464-.059.84-.104 1.128-.134.292-.033.504-.088.637-.164.136-.076.204-.209.204-.398v-.04c0-.49-.135-.871-.403-1.143-.265-.272-.668-.408-1.208-.408-.56 0-.999.123-1.3177.368-.3181.245-.5419.507-.6711.786l-1.1137-.398c.1989-.464.464-.825.7955-1.084.3347-.262.6993-.444 1.0937-.547.3973-.106.7893-.159 1.1733-.159.245 0 .527.03.845.09.322.056.632.174.93.353.302.179.552.449.751.81.198.361.298.845.298 1.452v5.031h-1.173v-1.034h-.06c-.08.166-.212.343-.398.532-.185.189-.432.35-.741.482-.308.133-.684.199-1.128.199zm.179-1.054c.464 0 .855-.091 1.173-.273.322-.183.564-.418.726-.706.166-.289.249-.592.249-.91v-1.074c-.05.06-.159.114-.329.164-.165.046-.357.088-.576.124-.216.033-.426.063-.632.09-.202.023-.366.043-.492.059-.305.04-.59.105-.8549.194-.2619.086-.474.217-.6364.393-.1591.172-.2386.408-.2386.706 0 .408.1508.716.4524.925.3049.205.6915.308 1.1585.308zm6.636-3.719v4.594h-1.174v-7.636h1.134v1.193h.099c.179-.388.451-.7.816-.935.364-.238.835-.358 1.412-.358.517 0 .969.106 1.357.318.388.209.689.527.905.955.215.424.323.961.323 1.611v4.852h-1.173v-4.773c0-.6-.156-1.067-.468-1.402-.311-.338-.739-.507-1.282-.507-.375 0-.71.081-1.005.244-.291.162-.522.399-.691.711-.169.311-.253.689-.253 1.133zm14.274-3.042v.994h-3.957v-.994zm-2.804-1.83h1.174v7.278c0 .332.048.581.144.746.099.163.225.272.378.328.155.053.32.08.492.08.129 0 .235-.007.318-.02.083-.017.149-.03.199-.04l.239 1.054c-.08.03-.191.06-.334.09-.142.033-.323.049-.541.049-.332 0-.657-.071-.975-.213-.315-.143-.577-.36-.785-.652-.206-.291-.309-.659-.309-1.103zm7.59 9.625c-.69 0-1.295-.164-1.815-.492-.517-.328-.921-.787-1.213-1.377-.289-.59-.433-1.28-.433-2.068 0-.796.144-1.49.433-2.084.292-.593.696-1.053 1.213-1.382.52-.328 1.125-.492 1.815-.492.689 0 1.292.164 1.809.492.521.329.925.789 1.213 1.382.292.594.438 1.288.438 2.084 0 .788-.146 1.478-.438 2.068-.288.59-.692 1.049-1.213 1.377-.517.328-1.12.492-1.809.492zm0-1.054c.523 0 .954-.134 1.292-.403.338-.268.588-.621.751-1.059.162-.437.243-.911.243-1.421 0-.511-.081-.986-.243-1.427-.163-.441-.413-.797-.751-1.069s-.769-.408-1.292-.408c-.524 0-.955.136-1.293.408s-.588.628-.751 1.069c-.162.441-.243.916-.243 1.427 0 .51.081.984.243 1.421.163.438.413.791.751 1.059.338.269.769.403 1.293.403zm9.188.895v-7.636h1.134v1.193h.099c.159-.408.416-.724.771-.95.354-.228.78-.343 1.278-.343.503 0 .923.115 1.257.343.338.226.602.542.791.95h.079c.196-.395.489-.708.88-.94.391-.235.86-.353 1.407-.353.683 0 1.242.214 1.676.642.434.424.651 1.085.651 1.983v5.111h-1.173v-5.111c0-.563-.154-.966-.463-1.208-.308-.242-.671-.363-1.088-.363-.537 0-.953.163-1.248.487-.295.322-.443.73-.443 1.223v4.972h-1.193v-5.23c0-.434-.141-.784-.423-1.049-.281-.269-.644-.403-1.088-.403-.305 0-.59.081-.855.244-.262.162-.474.388-.637.676-.159.285-.238.615-.238.989v4.773zm15.271.159c-.69 0-1.295-.164-1.815-.492-.517-.328-.922-.787-1.213-1.377-.289-.59-.433-1.28-.433-2.068 0-.796.144-1.49.433-2.084.291-.593.696-1.053 1.213-1.382.52-.328 1.125-.492 1.815-.492.689 0 1.292.164 1.809.492.521.329.925.789 1.213 1.382.292.594.438 1.288.438 2.084 0 .788-.146 1.478-.438 2.068-.288.59-.692 1.049-1.213 1.377-.517.328-1.12.492-1.809.492zm0-1.054c.523 0 .954-.134 1.292-.403.338-.268.588-.621.751-1.059.162-.437.243-.911.243-1.421 0-.511-.081-.986-.243-1.427-.163-.441-.413-.797-.751-1.069s-.769-.408-1.292-.408c-.524 0-.955.136-1.293.408s-.588.628-.751 1.069c-.162.441-.243.916-.243 1.427 0 .51.081.984.243 1.421.163.438.413.791.751 1.059.338.269.769.403 1.293.403zm6.424-3.699v4.594h-1.173v-7.636h1.133v1.193h.1c.179-.388.45-.7.815-.935.365-.238.835-.358 1.412-.358.517 0 .969.106 1.357.318.388.209.69.527.905.955.216.424.323.961.323 1.611v4.852h-1.173v-4.773c0-.6-.156-1.067-.467-1.402-.312-.338-.74-.507-1.283-.507-.375 0-.709.081-1.004.244-.292.162-.522.399-.691.711-.169.311-.254.689-.254 1.133zm7.016 4.594v-7.636h1.174v7.636zm.597-8.909c-.229 0-.426-.078-.592-.234-.162-.156-.243-.343-.243-.562 0-.218.081-.406.243-.561.166-.156.363-.234.592-.234s.424.078.586.234c.166.155.249.343.249.561 0 .219-.083.406-.249.562-.162.156-.357.234-.586.234zm6.047 1.273v.994h-3.958v-.994zm-2.804-1.83h1.173v7.278c0 .332.048.581.144.746.099.163.225.272.378.328.156.053.32.08.492.08.129 0 .235-.007.318-.02.083-.017.149-.03.199-.04l.239 1.054c-.08.03-.191.06-.333.09-.143.033-.324.049-.542.049-.332 0-.657-.071-.975-.213-.315-.143-.576-.36-.785-.652-.206-.291-.308-.659-.308-1.103zm7.589 9.625c-.69 0-1.295-.164-1.815-.492-.517-.328-.921-.787-1.213-1.377-.288-.59-.433-1.28-.433-2.068 0-.796.145-1.49.433-2.084.292-.593.696-1.053 1.213-1.382.52-.328 1.125-.492 1.815-.492.689 0 1.292.164 1.809.492.521.329.925.789 1.213 1.382.292.594.438 1.288.438 2.084 0 .788-.146 1.478-.438 2.068-.288.59-.692 1.049-1.213 1.377-.517.328-1.12.492-1.809.492zm0-1.054c.523 0 .954-.134 1.292-.403.338-.268.589-.621.751-1.059.162-.437.244-.911.244-1.421 0-.511-.082-.986-.244-1.427s-.413-.797-.751-1.069-.769-.408-1.292-.408c-.524 0-.955.136-1.293.408s-.588.628-.751 1.069c-.162.441-.243.916-.243 1.427 0 .51.081.984.243 1.421.163.438.413.791.751 1.059.338.269.769.403 1.293.403zm5.251.895v-7.636h1.133v1.153h.08c.139-.378.391-.684.756-.92.364-.235.775-.353 1.233-.353.086 0 .194.002.323.005.129.004.227.009.293.015v1.193c-.04-.01-.131-.024-.273-.044-.14-.024-.287-.035-.443-.035-.371 0-.702.078-.994.234-.288.152-.517.364-.686.636-.166.268-.249.575-.249.92v4.832zm9.146 0v-7.636h1.134v1.193h.099c.159-.408.416-.724.771-.95.355-.228.78-.343 1.278-.343.503 0 .923.115 1.257.343.339.226.602.542.791.95h.079c.196-.395.489-.708.88-.94.392-.235.861-.353 1.407-.353.683 0 1.242.214 1.676.642.434.424.651 1.085.651 1.983v5.111h-1.173v-5.111c0-.563-.154-.966-.463-1.208-.308-.242-.671-.363-1.088-.363-.537 0-.953.163-1.248.487-.295.322-.443.73-.443 1.223v4.972h-1.193v-5.23c0-.434-.141-.784-.422-1.049-.282-.269-.645-.403-1.089-.403-.305 0-.59.081-.855.244-.262.162-.474.388-.637.676-.159.285-.238.615-.238.989v4.773zm15.271.159c-.69 0-1.295-.164-1.815-.492-.517-.328-.921-.787-1.213-1.377-.288-.59-.433-1.28-.433-2.068 0-.796.145-1.49.433-2.084.292-.593.696-1.053 1.213-1.382.52-.328 1.125-.492 1.815-.492.689 0 1.292.164 1.809.492.521.329.925.789 1.213 1.382.292.594.438 1.288.438 2.084 0 .788-.146 1.478-.438 2.068-.288.59-.692 1.049-1.213 1.377-.517.328-1.12.492-1.809.492zm0-1.054c.523 0 .954-.134 1.292-.403.338-.268.589-.621.751-1.059.162-.437.244-.911.244-1.421 0-.511-.082-.986-.244-1.427s-.413-.797-.751-1.069-.769-.408-1.292-.408c-.524 0-.955.136-1.293.408s-.588.628-.751 1.069c-.162.441-.243.916-.243 1.427 0 .51.081.984.243 1.421.163.438.413.791.751 1.059.338.269.769.403 1.293.403zm5.251.895v-7.636h1.133v1.153h.08c.139-.378.391-.684.756-.92.364-.235.775-.353 1.233-.353.086 0 .193.002.323.005.129.004.227.009.293.015v1.193c-.04-.01-.131-.024-.273-.044-.14-.024-.287-.035-.443-.035-.371 0-.702.078-.994.234-.289.152-.517.364-.686.636-.166.268-.249.575-.249.92v4.832zm8.178.159c-.736 0-1.37-.162-1.904-.487-.53-.328-.94-.786-1.228-1.372-.285-.59-.428-1.276-.428-2.059 0-.782.143-1.471.428-2.068.288-.6.689-1.067 1.203-1.402.517-.338 1.12-.507 1.81-.507.398 0 .79.066 1.178.199s.741.348 1.059.646c.318.295.572.686.761 1.174.189.487.283 1.087.283 1.799v.498h-5.886v-1.015h4.693c0-.431-.086-.815-.259-1.153-.169-.338-.411-.605-.725-.8-.312-.196-.68-.294-1.104-.294-.468 0-.872.116-1.213.348-.338.229-.598.527-.781.895-.182.368-.273.762-.273 1.183v.676c0 .577.099 1.066.298 1.467.202.398.482.701.84.91.358.205.774.308 1.248.308.308 0 .587-.043.835-.129.252-.09.469-.222.652-.398.182-.179.323-.401.422-.666l1.134.318c-.12.385-.32.723-.602 1.014-.282.289-.63.514-1.044.676-.414.16-.88.239-1.397.239zm15.129-7.795-2.824 7.636h-1.193l-2.824-7.636h1.273l2.107 6.085h.08l2.108-6.085zm4.477 7.795c-.736 0-1.371-.162-1.905-.487-.53-.328-.939-.786-1.227-1.372-.286-.59-.428-1.276-.428-2.059 0-.782.142-1.471.428-2.068.288-.6.689-1.067 1.203-1.402.517-.338 1.12-.507 1.809-.507.398 0 .791.066 1.179.199.387.133.74.348 1.059.646.318.295.571.686.76 1.174.189.487.284 1.087.284 1.799v.498h-5.887v-1.015h4.693c0-.431-.086-.815-.258-1.153-.169-.338-.411-.605-.726-.8-.312-.196-.679-.294-1.104-.294-.467 0-.871.116-1.213.348-.338.229-.598.527-.78.895-.183.368-.274.762-.274 1.183v.676c0 .577.1 1.066.299 1.467.202.398.482.701.84.91.358.205.774.308 1.248.308.308 0 .586-.043.835-.129.252-.09.469-.222.651-.398.182-.179.323-.401.423-.666l1.133.318c-.119.385-.32.723-.601 1.014-.282.289-.63.514-1.044.676-.415.16-.88.239-1.397.239zm6.12-4.753v4.594h-1.174v-7.636h1.134v1.193h.099c.179-.388.451-.7.816-.935.364-.238.835-.358 1.412-.358.517 0 .969.106 1.357.318.388.209.689.527.905.955.215.424.323.961.323 1.611v4.852h-1.173v-4.773c0-.6-.156-1.067-.468-1.402-.311-.338-.739-.507-1.282-.507-.375 0-.71.081-1.005.244-.291.162-.522.399-.691.711-.169.311-.253.689-.253 1.133zm9.899 4.753c-.636 0-1.198-.161-1.685-.482-.487-.325-.868-.782-1.144-1.372-.275-.594-.412-1.295-.412-2.103 0-.802.137-1.498.412-2.088.276-.59.658-1.046 1.149-1.368.49-.321 1.057-.482 1.7-.482.497 0 .89.083 1.178.249.292.162.514.348.667.557.155.205.276.374.363.507h.099v-3.759h1.173v10.182h-1.133v-1.173h-.139c-.087.139-.209.315-.368.527-.159.208-.386.396-.681.561-.295.163-.688.244-1.179.244zm.159-1.054c.471 0 .869-.123 1.194-.368.324-.248.571-.591.74-1.029.169-.441.254-.949.254-1.526 0-.57-.083-1.069-.249-1.497-.165-.431-.411-.765-.735-1.004-.325-.242-.726-.363-1.204-.363-.497 0-.911.128-1.242.383-.329.252-.576.595-.741 1.029-.163.431-.244.915-.244 1.452 0 .543.083 1.037.249 1.481.169.441.417.792.745 1.054.332.259.743.388 1.233.388zm8.755 1.054c-.689 0-1.294-.164-1.814-.492-.517-.328-.922-.787-1.213-1.377-.289-.59-.433-1.28-.433-2.068 0-.796.144-1.49.433-2.084.291-.593.696-1.053 1.213-1.382.52-.328 1.125-.492 1.814-.492.69 0 1.293.164 1.81.492.52.329.925.789 1.213 1.382.292.594.438 1.288.438 2.084 0 .788-.146 1.478-.438 2.068-.288.59-.693 1.049-1.213 1.377-.517.328-1.12.492-1.81.492zm0-1.054c.524 0 .955-.134 1.293-.403.338-.268.588-.621.751-1.059.162-.437.243-.911.243-1.421 0-.511-.081-.986-.243-1.427-.163-.441-.413-.797-.751-1.069s-.769-.408-1.293-.408c-.523 0-.954.136-1.292.408s-.589.628-.751 1.069-.244.916-.244 1.427c0 .51.082.984.244 1.421.162.438.413.791.751 1.059.338.269.769.403 1.292.403zm5.252.895v-7.636h1.133v1.153h.08c.139-.378.391-.684.755-.92.365-.235.776-.353 1.233-.353.087 0 .194.002.323.005.13.004.228.009.294.015v1.193c-.04-.01-.131-.024-.274-.044-.139-.024-.286-.035-.442-.035-.371 0-.703.078-.994.234-.289.152-.517.364-.686.636-.166.268-.249.575-.249.92v4.832zm10.618-5.926-1.054.298c-.067-.176-.164-.346-.294-.512-.126-.169-.298-.308-.517-.418-.218-.109-.498-.164-.84-.164-.467 0-.857.108-1.168.324-.308.212-.463.482-.463.81 0 .292.107.522.319.691s.543.31.994.423l1.133.278c.683.166 1.192.419 1.527.761.335.338.502.774.502 1.307 0 .438-.126.829-.378 1.173-.249.345-.597.617-1.044.816s-.968.298-1.561.298c-.779 0-1.424-.169-1.934-.507s-.834-.832-.969-1.482l1.113-.278c.106.411.307.719.602.925.298.205.687.308 1.168.308.547 0 .981-.116 1.303-.348.324-.235.487-.517.487-.845 0-.265-.093-.487-.279-.666-.185-.183-.47-.319-.855-.408l-1.272-.298c-.7-.166-1.213-.423-1.542-.771-.324-.351-.487-.79-.487-1.317 0-.431.121-.812.363-1.144.245-.331.578-.591.999-.78.425-.189.905-.284 1.442-.284.756 0 1.349.166 1.78.497.434.332.742.769.925 1.313zm2.76 6.006c-.245 0-.456-.088-.631-.264-.176-.176-.264-.386-.264-.631 0-.246.088-.456.264-.632.175-.175.386-.263.631-.263s.456.088.632.263c.175.176.263.386.263.632 0 .162-.041.311-.124.447-.08.136-.187.245-.323.328-.133.08-.282.12-.448.12z" fill="#475467"/><path d="m0 350h360v1h-360z" fill="#eaecf0"/><rect fill="#fff" height="39" rx="7.5" width="150" x="185.5" y="367.5"/><path d="m211.833 378.667-8.333 10h7.5l-.833 6.666 8.333-10h-7.5z" stroke="#344054" stroke-linecap="round" stroke-linejoin="round" stroke-width="1.67"/><path d="m236.423 381.818h1.844v6.652c0 .729-.172 1.371-.517 1.924-.341.554-.822.986-1.442 1.298-.62.308-1.344.462-2.172.462-.832 0-1.558-.154-2.178-.462-.62-.312-1.1-.744-1.442-1.298-.341-.553-.512-1.195-.512-1.924v-6.652h1.845v6.498c0 .424.093.802.278 1.134.189.331.454.591.796.78.341.186.745.279 1.213.279.467 0 .871-.093 1.213-.279.344-.189.61-.449.795-.78.186-.332.279-.71.279-1.134zm3.769 13.046v-10.5h1.77v1.262h.105c.092-.185.223-.382.392-.591.169-.212.398-.393.686-.542.289-.153.657-.229 1.104-.229.59 0 1.122.151 1.596.453.477.298.855.74 1.134 1.327.281.583.422 1.299.422 2.148 0 .838-.137 1.551-.413 2.138-.275.586-.649 1.034-1.123 1.342s-1.011.462-1.611.462c-.437 0-.8-.073-1.089-.219-.288-.145-.52-.321-.696-.527-.172-.208-.306-.406-.402-.591h-.075v4.067zm1.765-6.682c0 .494.07.926.209 1.297.143.372.346.662.612.87.268.206.593.309.974.309.398 0 .731-.106.999-.319.269-.215.471-.508.607-.879.139-.375.209-.801.209-1.278 0-.474-.068-.895-.204-1.263s-.338-.656-.607-.865c-.268-.209-.603-.313-1.004-.313-.385 0-.711.101-.979.303-.269.202-.473.486-.612.85-.136.365-.204.794-.204 1.288zm10.306 6.841c-.646 0-1.201-.088-1.665-.264-.464-.172-.837-.404-1.119-.696-.281-.291-.477-.615-.586-.969l1.62-.393c.073.149.179.297.318.442.14.15.327.272.562.368.239.1.539.15.9.15.511 0 .933-.125 1.268-.373.335-.246.502-.65.502-1.213v-1.447h-.089c-.093.185-.229.376-.408.572-.176.195-.409.359-.701.492-.288.132-.651.199-1.089.199-.587 0-1.119-.138-1.596-.413-.474-.278-.852-.693-1.133-1.243-.279-.553-.418-1.246-.418-2.078 0-.839.139-1.546.418-2.123.281-.58.661-1.019 1.138-1.317.477-.302 1.009-.453 1.596-.453.448 0 .815.076 1.104.229.291.149.523.33.696.542.172.209.303.406.393.591h.099v-1.262h1.775v7.76c0 .653-.156 1.193-.467 1.621-.312.428-.738.747-1.278.96-.54.212-1.154.318-1.84.318zm.015-4.544c.381 0 .706-.093.975-.279.268-.185.472-.452.611-.8s.209-.766.209-1.253c0-.481-.07-.901-.209-1.263-.136-.361-.338-.641-.606-.84-.266-.202-.592-.303-.98-.303-.401 0-.736.104-1.004.313s-.471.495-.607.86c-.135.361-.203.772-.203 1.233 0 .467.068.877.203 1.228.14.348.343.62.612.815.272.193.605.289.999.289zm5.414 1.521v-7.636h1.745v1.272h.08c.139-.44.378-.78.716-1.019.341-.242.731-.363 1.168-.363.1 0 .211.005.333.015.126.007.231.018.313.035v1.656c-.076-.027-.197-.05-.363-.07-.162-.023-.319-.035-.472-.035-.328 0-.623.071-.885.214-.258.139-.462.333-.611.582-.149.248-.224.535-.224.86v4.489zm7.612.154c-.484 0-.92-.086-1.308-.258-.384-.176-.689-.435-.915-.776-.222-.341-.333-.762-.333-1.263 0-.431.08-.787.239-1.069.159-.281.376-.507.651-.676s.585-.296.93-.383c.348-.089.708-.154 1.079-.193.447-.047.81-.088 1.089-.125.278-.04.48-.099.606-.179.129-.083.194-.21.194-.383v-.029c0-.375-.111-.665-.333-.87-.222-.206-.542-.309-.96-.309-.44 0-.79.096-1.049.289-.255.192-.427.419-.517.681l-1.68-.239c.133-.464.351-.852.656-1.163.305-.315.678-.55 1.119-.706.441-.159.928-.239 1.461-.239.368 0 .735.043 1.099.129.365.087.698.229.999.428.302.196.544.462.726.8.186.339.279.761.279 1.268v5.111h-1.73v-1.049h-.06c-.109.212-.264.411-.462.597-.196.182-.443.329-.741.442-.295.109-.641.164-1.039.164zm.467-1.322c.361 0 .675-.072.94-.214.265-.146.469-.338.611-.577.146-.238.219-.499.219-.78v-.9c-.056.046-.152.089-.288.129-.133.04-.282.075-.448.104-.165.03-.33.057-.492.08s-.303.043-.423.06c-.268.036-.508.096-.72.179-.213.083-.38.199-.503.348-.122.145-.184.334-.184.566 0 .332.121.582.363.751s.551.254.925.254zm8.208 1.302c-.6 0-1.137-.154-1.611-.462s-.848-.756-1.123-1.342c-.275-.587-.413-1.3-.413-2.138 0-.849.139-1.565.418-2.148.282-.587.661-1.029 1.138-1.327.478-.302 1.01-.453 1.596-.453.448 0 .816.076 1.104.229.288.149.517.33.686.542.169.209.3.406.393.591h.074v-3.808h1.805v10.182h-1.77v-1.203h-.109c-.093.185-.227.383-.403.591-.176.206-.408.382-.696.527-.288.146-.651.219-1.089.219zm.502-1.476c.382 0 .706-.103.975-.309.268-.208.472-.498.611-.87.139-.371.209-.803.209-1.297s-.07-.923-.209-1.288c-.136-.364-.338-.648-.606-.85-.265-.202-.592-.303-.98-.303-.401 0-.735.104-1.004.313-.268.209-.471.497-.606.865-.136.368-.204.789-.204 1.263 0 .477.068.903.204 1.278.139.371.343.664.611.879.272.213.605.319.999.319zm8.863 1.491c-.765 0-1.426-.159-1.983-.477-.554-.322-.98-.776-1.278-1.362-.298-.59-.447-1.285-.447-2.083 0-.786.149-1.475.447-2.069.302-.596.723-1.06 1.263-1.392.54-.334 1.175-.502 1.904-.502.471 0 .915.076 1.332.229.421.149.793.381 1.114.696.325.315.58.716.766 1.203.185.484.278 1.061.278 1.73v.552h-6.259v-1.213h4.534c-.003-.345-.078-.651-.224-.92-.146-.272-.349-.485-.611-.641-.259-.156-.56-.234-.905-.234-.368 0-.691.09-.97.269-.278.175-.495.407-.651.696-.152.285-.23.598-.234.939v1.059c0 .444.082.826.244 1.144.162.315.39.557.681.726.292.165.633.248 1.024.248.262 0 .499-.036.711-.109.212-.076.396-.187.552-.333s.274-.327.353-.542l1.68.189c-.106.444-.308.832-.606 1.163-.295.328-.673.583-1.134.766-.46.179-.987.268-1.581.268zm8.391 2.715v-10.5h1.77v1.262h.105c.092-.185.223-.382.392-.591.169-.212.398-.393.686-.542.289-.153.657-.229 1.104-.229.59 0 1.122.151 1.596.453.477.298.855.74 1.133 1.327.282.583.423 1.299.423 2.148 0 .838-.137 1.551-.413 2.138-.275.586-.649 1.034-1.123 1.342s-1.011.462-1.611.462c-.437 0-.8-.073-1.089-.219-.288-.145-.52-.321-.696-.527-.172-.208-.306-.406-.402-.591h-.075v4.067zm1.765-6.682c0 .494.07.926.209 1.297.143.372.346.662.611.87.269.206.594.309.975.309.398 0 .731-.106.999-.319.269-.215.471-.508.607-.879.139-.375.209-.801.209-1.278 0-.474-.068-.895-.204-1.263s-.338-.656-.607-.865c-.268-.209-.603-.313-1.004-.313-.385 0-.711.101-.979.303-.269.202-.473.486-.612.85-.136.365-.204.794-.204 1.288zm8.785-6.364v10.182h-1.8v-10.182zm4.048 10.336c-.484 0-.92-.086-1.307-.258-.385-.176-.69-.435-.915-.776-.222-.341-.333-.762-.333-1.263 0-.431.079-.787.238-1.069.159-.281.377-.507.652-.676s.585-.296.929-.383c.348-.089.708-.154 1.079-.193.448-.047.811-.088 1.089-.125.278-.04.481-.099.606-.179.13-.083.194-.21.194-.383v-.029c0-.375-.111-.665-.333-.87-.222-.206-.542-.309-.959-.309-.441 0-.791.096-1.049.289-.255.192-.428.419-.517.681l-1.681-.239c.133-.464.352-.852.657-1.163.304-.315.677-.55 1.118-.706.441-.159.928-.239 1.462-.239.368 0 .734.043 1.099.129.364.087.697.229.999.428.301.196.543.462.726.8.185.339.278.761.278 1.268v5.111h-1.73v-1.049h-.06c-.109.212-.263.411-.462.597-.196.182-.443.329-.741.442-.295.109-.641.164-1.039.164zm.467-1.322c.362 0 .675-.072.94-.214.265-.146.469-.338.612-.577.145-.238.218-.499.218-.78v-.9c-.056.046-.152.089-.288.129-.133.04-.282.075-.447.104-.166.03-.33.057-.493.08-.162.023-.303.043-.422.06-.269.036-.509.096-.721.179s-.38.199-.502.348c-.123.145-.184.334-.184.566 0 .332.121.582.363.751s.55.254.924.254zm7.174-3.306v4.474h-1.799v-7.636h1.72v1.297h.089c.176-.427.456-.767.841-1.019.387-.252.866-.378 1.436-.378.527 0 .986.113 1.377.338.395.226.7.552.915.98.219.427.327.946.323 1.556v4.862h-1.799v-4.584c0-.51-.133-.91-.398-1.198-.262-.288-.625-.432-1.089-.432-.315 0-.595.069-.84.208-.242.136-.433.333-.572.592-.136.258-.204.572-.204.94z" fill="#344054"/><rect height="39" rx="7.5" stroke="#d0d5dd" width="150" x="185.5" y="367.5"/></g><rect height="422" rx="11.5" stroke="#eaecf0" width="359" x=".5" y=".5"/></svg>